<?xml version="1.0" encoding="UTF-8" standalone="no"?>
<svg
   id="eF0MTUqdrIR1"
   shape-rendering="geometricPrecision"
   text-rendering="geometricPrecision"
   viewBox="-0.13 0 383.13 88.51"
   version="1.1"
   sodipodi:docname="background2.svg"
   inkscape:version="1.1.2 (b8e25be833, 2022-02-05)"
   xmlns:inkscape="http://www.inkscape.org/namespaces/inkscape"
   xmlns:sodipodi="http://sodipodi.sourceforge.net/DTD/sodipodi-0.dtd"
   xmlns="http://www.w3.org/2000/svg"
   xmlns:svg="http://www.w3.org/2000/svg">
  <defs
     id="defs282" />
  <sodipodi:namedview
     id="namedview280"
     pagecolor="#ffffff"
     bordercolor="#666666"
     borderopacity="1.0"
     inkscape:pageshadow="2"
     inkscape:pageopacity="0.0"
     inkscape:pagecheckerboard="0"
     showgrid="false"
     inkscape:zoom="4.4554068"
     inkscape:cx="191.565"
     inkscape:cy="44.21594"
     inkscape:window-width="1920"
     inkscape:window-height="1017"
     inkscape:window-x="-8"
     inkscape:window-y="-8"
     inkscape:window-maximized="1"
     inkscape:current-layer="eF0MTUqdrIR1" />
  <g
     transform="translate(-4.128513-1.359313)"
     id="g269">
    <g
       mask="url(#eF0MTUqdrIR5)"
       id="g267">
      <path
         d="M43.5,47h36v-24.4582l-22.7381-9.01L43.5,47ZM4.00001,76L-32,76v36h36.00002L4.00001,76ZM4,36.0628L3.99999,0.062774L-32,0.062785v36.000015h36ZM7.5,47c0,5.7146.59453,10.8544,1.87908,15.6871.62802,2.3627,1.29432,4.1484,1.53142,4.7873.1794.4834-.0751-.182-.3146-.9211-.2667-.8232-.94591-3.0022-1.33565-5.9231-.4275-3.2038-.49396-7.1485.38522-11.5086.86533-4.2915,2.40103-7.7644,3.86603-10.3345c1.3779-2.4174,2.7454-4.1242,3.4825-4.995.7571-.8944,1.3529-1.4927,1.5086-1.6484.1783-.1784.236-.225-.7774.7164-.7919.7355-1.91,1.7757-3.301,3.1111L64.2865,87.911c.9532-.915,1.7228-1.6318,2.4395-2.2976.4952-.4599,1.6825-1.5523,2.689-2.5588.6222-.6222,3.9197-3.8258,6.6483-8.6128c1.6163-2.8355,3.2473-6.5539,4.1616-11.0882.9281-4.6029.8643-8.7877.4028-12.2462-.4237-3.1756-1.1735-5.6239-1.5378-6.7481-.2001-.6177-.3794-1.1195-.4797-1.3966-.0926-.2559-.1904-.518-.1986-.5403-.0464-.125.2673.7006.5513,1.7691.5966,2.2444.5371,3.459.5371,2.8085h-72Zm6.9242-11.0288C11.901,38.3935,8.17646,40,4,40l.00002,72c22.34518,0,44.05608-8.508,60.28648-24.089L14.4242,35.9712ZM40,76v-39.9372h-72L-32,76h72ZM4.00001,72.0628c11.31189,0,22.44129-4.3001,30.86999-12.3916L-14.9923,7.7313C-9.71385,2.66394,-2.8569,0.062776,3.99999,0.062774L4.00001,72.0628ZM34.87,59.6712c-.6141.5895-1.6015,1.4905-2.9233,2.4925-1.2087.9163-3.4698,2.511-6.6266,3.9496-2.8194,1.285-9.0415,3.6959-17.28964,3.1233-4.4048-.3058-9.33725-1.4718-14.21986-4.04-4.9132-2.5844-8.8343-6.0953-11.7641-9.912-5.5326-7.2076-6.8379-14.4893-7.2132-18.0661-.4119-3.9254-.083-7.0999.1965-8.9617.5627-3.7489,1.6227-6.6764,2.4453-8.5828.8294-1.9223,2.2114-4.6451,4.4829-7.56c1.1325-1.4533,3.118-3.77261,6.0812-6.09661c2.69177-2.1112,8.45576-6.018155,16.94071-7.25198c4.50225-.65469,9.59449-.51527,14.85419.959416C25.099,1.20095,29.5418,3.73759,33.0744,6.67144C39.7296,12.1987,42.5931,18.5984,43.7551,21.7303c1.2798,3.4494,1.7403,6.348,1.9343,7.9325.2125,1.7358.2494,3.1447.2494,4.0384h-72c0,1.1611.0493,2.7921.284,4.7101.2163,1.7666.7091,4.8076,2.0289,8.3648c1.202,3.2396,4.1132,9.7126,10.8215,15.2839c3.5591,2.9559,8.0298,5.5073,13.323581,6.9915C5.68546,70.5343,10.8077,70.6752,15.3407,70.0161c8.5465-1.2428,14.3751-5.1826,17.1322-7.345c3.0285-2.3753,5.0802-4.7644,6.2773-6.3005c2.4007-3.0807,3.9058-6.022,4.8337-8.1724.9209-2.1346,2.0548-5.3,2.6482-9.2538.2949-1.9643.6284-5.233.2081-9.239-.3837-3.6575-1.7106-11.0062-7.2801-18.2619-2.9482-3.84076-6.8917-7.37099-11.8313-9.96924-4.9091-2.58218-9.8721-3.7566-14.3119-4.06483-8.31813-.57747-14.62789,1.852876-17.55499,3.186851C-7.80252,2.08398,-10.1913,3.7574,-11.55,4.78739c-1.4717,1.11573-2.6314,2.16538-3.4423,2.94391L34.87,59.6712ZM-3.32312,67.1695L30.2381,80.4682L56.7619,13.5318L23.2007,0.23302L-3.32312,67.1695Z"
         transform="translate(-24.476288-14.414057)"
         fill="#fe724c"
         id="path262" />
      <mask
         id="eF0MTUqdrIR5"
         mask-type="luminance">
        <path
           d="M43.5,47c0,12.7304,5.2322,5.9394-4.1447,14.9411s-22.0945,14.0589-35.35529,14.0589L4,36.0628c2.22748,0,4.36374-.8495,5.9388-2.3616c0,2.1384,1.5751-1.512,0,0L43.5,47Z"
           transform="translate(.000001 0)"
           fill="#fff"
           id="path264" />
      </mask>
    </g>
  </g>
  <g
     transform="matrix(.824581 0 0 0.965036-3.298341-.482518)"
     id="g273">
    <path
       d="M164,0.5c0,8.7329-2.134,17.3803-6.28,25.4484s-10.223,15.3991-17.884,21.5742-16.755,11.0735-26.765,14.4154C103.062,65.2799,92.3341,67,81.5,67c-10.834,0-21.562-1.7201-31.5714-5.062-10.0093-3.342-19.1041-8.2403-26.7649-14.4154s-15.01766-14.4544-19.16368-22.5226c.00002-7.5.00004-15.7671.00004-24.5L81.5,0.5h82.5Z"
       fill="#ffece7"
       id="path271" />
  </g>
  <g
     transform="matrix(1.076557 0 0 1.113284-24.476825-.556642)"
     id="g277">
    <path
       d="M378.5,80c-10.44,0-20.778-2.0563-30.423-6.0516-9.646-3.9952-18.41-9.8512-25.792-17.2334-7.382-7.3823-13.238-16.1463-17.233-25.7917C301.056,21.2779,299,10.9401,299,0.5h79.5v79.5Z"
       fill="#fe724c"
       id="path275" />
  </g>
</svg>
