<svg id="svg" version="1.1" xmlns="http://www.w3.org/2000/svg" xmlns:xlink="http://www.w3.org/1999/xlink" width="21.5" height="21.5" viewBox="0, 0, 400,400"><g id="svgg"><path id="path0" d="M178.730 26.184 C 34.214 43.679,-27.040 221.356,75.942 324.337 C 164.998 413.394,317.506 381.426,363.222 264.119 C 411.248 140.883,309.991 10.294,178.730 26.184 M214.513 43.811 C 344.634 56.654,403.483 214.031,313.321 308.052 C 221.924 403.359,61.240 350.837,44.172 220.077 C 31.236 120.971,115.268 34.016,214.513 43.811 M181.529 94.196 C 111.104 106.026,71.433 184.558,103.564 248.534 C 143.273 327.599,256.526 327.833,296.227 248.933 C 335.829 170.228,268.626 79.566,181.529 94.196 " stroke="none" fill="#FE724C" fill-rule="evenodd"></path></g></svg>