<svg id="svg" version="1.1" xmlns="http://www.w3.org/2000/svg" xmlns:xlink="http://www.w3.org/1999/xlink" width="400" height="400" viewBox="0, 0, 400,400"><g id="svgg"><path id="path0" d="M0.022 6.500 L 0.043 13.000 0.768 10.735 C 2.401 5.627,5.632 2.412,10.800 0.750 L 13.000 0.043 6.500 0.022 L 0.000 0.000 0.022 6.500 M171.702 0.434 C 177.457 1.791,181.995 6.759,183.180 13.000 C 183.513 14.757,183.604 36.247,183.518 93.200 L 183.400 171.000 182.494 173.200 C 180.658 177.661,177.604 180.685,173.038 182.562 L 171.000 183.400 92.704 183.502 C 39.559 183.572,13.810 183.471,12.550 183.189 C 6.594 181.854,1.743 177.255,0.434 171.702 C 0.219 170.787,0.080 181.856,0.080 200.000 C 0.080 218.144,0.219 229.213,0.434 228.298 C 1.979 221.743,7.328 217.527,15.075 216.759 C 17.513 216.517,47.717 216.414,94.800 216.485 L 170.600 216.600 172.885 217.465 C 177.381 219.166,180.527 222.234,182.473 226.817 L 183.400 229.000 183.501 307.000 C 183.565 355.910,183.458 385.781,183.216 387.094 C 182.109 393.091,177.364 398.231,171.702 399.566 C 170.787 399.781,181.856 399.920,200.000 399.920 C 218.144 399.920,229.213 399.781,228.298 399.566 C 222.522 398.204,217.624 392.696,216.867 386.710 C 216.720 385.549,216.690 349.320,216.800 306.200 L 217.000 227.800 218.172 225.447 C 220.737 220.296,225.195 217.371,231.396 216.771 C 235.845 216.340,380.949 216.331,385.443 216.761 C 392.516 217.438,398.077 221.981,399.566 228.298 C 399.781 229.213,399.920 218.144,399.920 200.000 C 399.920 181.856,399.781 170.787,399.566 171.702 C 398.257 177.253,393.406 181.854,387.454 183.188 C 386.199 183.469,360.335 183.570,307.301 183.502 L 229.000 183.400 226.800 182.494 C 222.224 180.610,219.117 177.411,217.560 172.982 C 216.648 170.386,216.344 14.640,217.246 11.400 C 218.741 6.025,223.153 1.647,228.298 0.434 C 229.213 0.219,218.144 0.080,200.000 0.080 C 181.856 0.080,170.787 0.219,171.702 0.434 M389.265 0.768 C 394.373 2.401,397.588 5.632,399.250 10.800 L 399.957 13.000 399.978 6.500 L 400.000 0.000 393.500 0.022 L 387.000 0.043 389.265 0.768 M33.600 91.600 L 33.600 149.600 91.600 149.600 L 149.600 149.600 149.600 91.600 L 149.600 33.600 91.600 33.600 L 33.600 33.600 33.600 91.600 M250.400 91.600 L 250.400 149.600 308.400 149.600 L 366.400 149.600 366.400 91.600 L 366.400 33.600 308.400 33.600 L 250.400 33.600 250.400 91.600 M33.600 308.400 L 33.600 366.400 91.600 366.400 L 149.600 366.400 149.600 308.400 L 149.600 250.400 91.600 250.400 L 33.600 250.400 33.600 308.400 M250.400 308.400 L 250.400 366.400 308.400 366.400 L 366.400 366.400 366.400 308.400 L 366.400 250.400 308.400 250.400 L 250.400 250.400 250.400 308.400 M0.022 393.500 L 0.000 400.000 6.500 399.978 L 13.000 399.957 10.800 399.250 C 5.632 397.588,2.401 394.373,0.768 389.265 L 0.043 387.000 0.022 393.500 M399.600 387.785 C 399.600 391.926,394.521 397.552,389.265 399.232 L 387.000 399.957 393.500 399.978 L 400.000 400.000 400.000 393.600 C 400.000 390.080,399.910 387.200,399.800 387.200 C 399.690 387.200,399.600 387.463,399.600 387.785 " stroke="none" fill="#fbfbfb" fill-rule="evenodd"></path><path id="path1" d="M10.735 0.765 C 6.314 2.184,2.788 5.395,1.122 9.519 L 0.200 11.800 0.200 91.800 L 0.200 171.800 1.433 174.401 C 3.559 178.888,7.596 182.079,12.550 183.189 C 13.810 183.471,39.559 183.572,92.704 183.502 L 171.000 183.400 173.200 182.494 C 177.661 180.658,180.685 177.604,182.562 173.038 L 183.400 171.000 183.518 93.200 C 183.604 36.247,183.513 14.757,183.180 13.000 C 182.182 7.741,179.082 3.658,174.400 1.435 L 171.800 0.200 92.400 0.119 C 16.628 0.042,12.896 0.071,10.735 0.765 M228.298 0.432 C 223.146 1.653,218.740 6.025,217.246 11.400 C 216.344 14.640,216.648 170.386,217.560 172.982 C 219.117 177.411,222.224 180.610,226.800 182.494 L 229.000 183.400 307.301 183.502 C 360.335 183.570,386.199 183.469,387.454 183.188 C 392.404 182.079,396.442 178.886,398.567 174.401 L 399.800 171.800 399.800 91.800 L 399.800 11.800 398.835 9.400 C 397.515 6.117,393.883 2.485,390.600 1.165 L 388.200 0.200 309.000 0.138 C 263.890 0.103,229.154 0.230,228.298 0.432 M149.600 91.600 L 149.600 149.600 91.600 149.600 L 33.600 149.600 33.600 91.600 L 33.600 33.600 91.600 33.600 L 149.600 33.600 149.600 91.600 M366.400 91.600 L 366.400 149.600 308.400 149.600 L 250.400 149.600 250.400 91.600 L 250.400 33.600 308.400 33.600 L 366.400 33.600 366.400 91.600 M14.109 216.807 C 8.400 217.418,3.820 220.597,1.438 225.600 L 0.200 228.200 0.200 308.200 L 0.200 388.200 1.165 390.600 C 2.485 393.883,6.117 397.515,9.400 398.835 L 11.800 399.800 91.800 399.800 L 171.800 399.800 174.400 398.565 C 178.993 396.384,182.294 392.089,183.216 387.094 C 183.458 385.781,183.565 355.910,183.501 307.000 L 183.400 229.000 182.473 226.817 C 180.527 222.234,177.381 219.166,172.885 217.465 L 170.600 216.600 93.800 216.549 C 51.560 216.521,15.699 216.637,14.109 216.807 M230.800 216.806 C 225.254 217.350,220.628 220.516,218.172 225.447 L 217.000 227.800 216.800 306.200 C 216.690 349.320,216.720 385.549,216.867 386.710 C 217.495 391.680,220.927 396.338,225.600 398.562 L 228.200 399.800 308.200 399.800 L 388.200 399.800 390.600 398.835 C 392.292 398.155,393.719 397.151,395.435 395.435 C 397.151 393.719,398.155 392.292,398.835 390.600 L 399.800 388.200 399.800 308.200 L 399.800 228.200 398.562 225.600 C 396.103 220.434,391.513 217.342,385.443 216.761 C 381.331 216.367,234.837 216.410,230.800 216.806 M149.600 308.400 L 149.600 366.400 91.600 366.400 L 33.600 366.400 33.600 308.400 L 33.600 250.400 91.600 250.400 L 149.600 250.400 149.600 308.400 M366.400 308.400 L 366.400 366.400 308.400 366.400 L 250.400 366.400 250.400 308.400 L 250.400 250.400 308.400 250.400 L 366.400 250.400 366.400 308.400 " stroke="none" fill="#D3D1D8" fill-rule="evenodd"></path></g></svg>