<svg id="svg" version="1.1" xmlns="http://www.w3.org/2000/svg" xmlns:xlink="http://www.w3.org/1999/xlink" width="400" height="400" viewBox="0, 0, 400,400"><g id="svgg"><path id="path0" d="M195.128 33.545 C 191.002 34.875,187.466 37.670,185.345 41.279 L 183.203 44.922 183.203 117.188 C 183.203 182.999,183.319 189.664,184.498 191.813 C 191.419 204.430,208.581 204.430,215.502 191.813 C 216.681 189.664,216.797 182.999,216.797 117.188 L 216.797 44.922 214.628 41.232 C 210.942 34.962,201.850 31.378,195.128 33.545 M292.003 67.139 C 284.424 69.582,280.063 75.613,280.104 83.594 C 280.140 90.414,280.953 91.701,292.722 103.572 C 386.803 198.472,302.246 356.840,172.002 329.670 C 68.902 308.163,32.185 178.824,107.695 103.147 C 121.490 89.321,123.265 81.054,114.353 72.129 C 103.795 61.556,90.324 67.934,70.342 92.969 C -17.694 203.268,59.738 366.760,200.000 366.728 C 349.611 366.694,423.541 183.262,316.213 78.385 C 304.866 67.297,299.395 64.756,292.003 67.139 " stroke="none" fill="#000000" fill-rule="evenodd"></path></g></svg>