<svg id="svg" version="1.1" xmlns="http://www.w3.org/2000/svg" xmlns:xlink="http://www.w3.org/1999/xlink" width="400" height="396.6777408637874" viewBox="0, 0, 400,396.6777408637874"><g id="svgg"><path id="path0" d="M145.635 0.379 C 145.089 0.563,143.441 0.732,141.972 0.754 C 140.502 0.776,138.092 0.968,136.615 1.182 C 135.137 1.395,131.964 1.853,129.563 2.199 C 127.163 2.545,124.484 2.985,123.611 3.176 C 122.738 3.368,120.595 3.821,118.849 4.182 C 117.103 4.544,115.317 4.987,114.881 5.167 C 114.444 5.347,113.552 5.605,112.897 5.741 C 111.518 6.027,102.961 8.615,101.786 9.101 C 100.821 9.500,98.375 10.439,96.230 11.234 C 87.106 14.615,68.544 24.940,62.105 30.215 C 61.667 30.574,59.465 32.338,57.211 34.137 C 50.486 39.503,43.855 45.923,36.598 54.092 C 32.004 59.264,24.341 70.314,20.173 77.778 C 16.555 84.255,11.508 94.751,11.508 95.796 C 11.508 96.071,11.386 96.419,11.236 96.568 C 10.747 97.057,6.632 109.185,5.729 112.798 C 2.718 124.848,1.771 130.367,0.708 142.063 C -0.248 152.574,0.507 169.045,2.399 178.968 C 3.824 186.444,4.783 190.927,5.157 191.865 C 5.332 192.302,5.775 193.909,6.143 195.437 C 6.510 196.964,6.962 198.571,7.147 199.008 C 7.332 199.444,7.776 200.784,8.135 201.984 C 8.493 203.185,8.932 204.524,9.109 204.960 C 9.286 205.397,10.375 208.165,11.529 211.111 C 14.861 219.619,25.424 239.242,27.764 241.270 C 27.890 241.379,29.235 243.165,30.754 245.238 C 32.273 247.312,33.614 249.097,33.734 249.206 C 33.854 249.315,35.311 251.012,36.973 252.976 C 42.792 259.855,51.633 268.336,58.135 273.276 C 60.099 274.769,62.104 276.347,62.590 276.785 C 63.974 278.029,75.624 285.396,79.365 287.392 C 84.759 290.270,89.151 292.460,89.530 292.462 C 89.723 292.463,90.759 292.909,91.833 293.454 C 92.907 293.999,93.929 294.444,94.104 294.444 C 94.279 294.444,95.365 294.877,96.517 295.407 C 99.114 296.600,109.554 300.054,113.294 300.958 C 117.245 301.913,118.608 302.254,120.635 302.795 C 121.617 303.057,123.581 303.442,125.000 303.651 C 126.419 303.860,128.472 304.174,129.563 304.348 C 131.700 304.689,136.982 305.288,143.651 305.944 C 148.894 306.460,158.735 306.470,162.897 305.964 C 164.643 305.752,168.036 305.387,170.437 305.152 C 172.837 304.917,175.694 304.572,176.786 304.386 C 186.226 302.772,186.490 302.718,192.952 301.049 C 197.022 299.998,207.254 296.672,208.427 296.019 C 208.806 295.808,209.287 295.635,209.495 295.635 C 209.703 295.635,211.413 294.921,213.294 294.048 C 215.175 293.175,216.806 292.460,216.920 292.460 C 217.361 292.460,223.232 289.507,227.237 287.271 C 229.552 285.978,231.630 284.921,231.853 284.921 C 232.407 284.921,234.393 286.785,248.611 300.651 C 255.377 307.249,261.806 313.494,262.897 314.528 C 264.678 316.217,271.921 323.252,297.983 348.611 C 302.469 352.976,308.820 359.161,312.097 362.354 C 315.374 365.548,319.573 369.632,321.429 371.428 C 323.284 373.225,327.126 376.951,329.967 379.709 C 342.124 391.508,344.455 393.204,351.587 395.446 C 352.788 395.823,354.180 396.288,354.681 396.479 C 356.043 396.996,368.935 396.908,370.607 396.369 C 379.239 393.587,384.728 390.242,389.147 385.070 C 399.091 373.430,401.114 358.152,394.525 344.444 C 393.739 342.808,392.953 341.290,392.779 341.071 C 392.605 340.853,391.677 339.603,390.715 338.294 C 389.754 336.984,387.120 334.131,384.861 331.954 C 380.193 327.455,361.645 309.489,351.226 299.375 C 347.387 295.648,341.669 290.112,338.519 287.073 C 332.113 280.892,330.279 279.113,322.377 271.419 C 319.345 268.467,311.334 260.699,304.573 254.157 C 297.813 247.615,290.334 240.374,287.954 238.067 L 283.626 233.872 285.758 229.932 C 286.930 227.765,288.202 225.456,288.585 224.802 C 288.968 224.147,289.656 222.808,290.115 221.825 C 290.575 220.843,291.367 219.147,291.877 218.056 C 294.071 213.361,295.338 210.363,296.070 208.135 C 296.501 206.825,297.006 205.397,297.194 204.960 C 297.382 204.524,297.836 203.274,298.203 202.183 C 298.571 201.091,299.026 199.841,299.214 199.405 C 299.403 198.968,299.914 197.183,300.350 195.437 C 300.786 193.690,301.422 191.222,301.764 189.951 C 302.783 186.166,303.695 181.190,305.125 171.627 C 305.932 166.229,306.461 150.517,305.992 145.864 C 305.752 143.479,305.556 140.402,305.556 139.024 C 305.556 137.646,305.382 135.758,305.171 134.827 C 304.959 133.896,304.506 131.081,304.163 128.571 C 303.820 126.062,303.381 123.383,303.187 122.619 C 302.861 121.333,302.133 118.248,301.128 113.889 C 300.685 111.968,299.691 108.629,299.179 107.341 C 299.005 106.905,298.395 105.030,297.823 103.175 C 297.252 101.319,296.513 99.177,296.182 98.413 C 295.852 97.649,295.433 96.667,295.252 96.230 C 295.070 95.794,294.624 94.722,294.260 93.849 C 293.895 92.976,293.463 91.905,293.298 91.468 C 292.288 88.786,285.233 75.418,283.284 72.494 C 282.002 70.570,280.952 68.897,280.952 68.775 C 280.952 68.539,275.003 60.252,274.596 59.921 C 274.462 59.812,273.563 58.651,272.599 57.341 C 271.635 56.032,269.845 53.889,268.622 52.579 C 267.398 51.270,265.610 49.308,264.647 48.221 C 260.975 44.071,252.211 36.007,248.300 33.179 C 247.380 32.514,246.538 31.857,246.429 31.720 C 246.125 31.338,238.061 25.653,235.485 24.006 C 228.936 19.816,217.429 13.966,210.218 11.161 C 209.727 10.969,208.790 10.593,208.135 10.324 C 206.076 9.479,196.332 6.322,193.948 5.728 C 182.122 2.779,175.998 1.714,165.278 0.743 C 159.528 0.222,146.795 -0.014,145.635 0.379 M163.690 61.935 C 168.093 62.480,174.379 63.751,179.167 65.064 C 180.816 65.517,188.036 68.146,189.484 68.821 C 190.139 69.126,191.746 69.862,193.056 70.457 C 197.396 72.427,207.064 78.588,211.075 81.939 C 223.256 92.117,236.704 110.620,239.151 120.570 C 239.294 121.151,239.738 122.396,240.137 123.336 C 248.996 144.170,245.594 178.937,232.730 199.047 C 231.971 200.234,231.349 201.315,231.349 201.448 C 231.349 201.701,228.586 205.832,227.609 207.039 C 227.298 207.423,225.977 209.077,224.674 210.714 C 219.610 217.075,205.273 230.159,203.366 230.159 C 203.256 230.159,201.784 231.021,200.095 232.074 C 195.944 234.663,188.924 238.038,184.722 239.467 C 183.631 239.838,182.381 240.293,181.944 240.479 C 180.979 240.889,177.553 241.917,176.190 242.204 C 175.645 242.319,173.948 242.703,172.421 243.057 C 163.968 245.015,150.474 245.620,142.262 244.409 C 138.057 243.789,132.882 242.848,131.548 242.460 C 130.893 242.269,129.107 241.761,127.579 241.330 C 108.950 236.074,91.218 223.542,79.209 207.143 C 78.010 205.506,76.865 203.977,76.665 203.746 C 76.464 203.515,75.843 202.506,75.283 201.504 C 74.724 200.502,73.790 198.928,73.208 198.006 C 72.234 196.463,71.171 194.283,68.567 188.492 C 67.522 186.170,65.445 180.214,64.761 177.579 C 64.534 176.706,64.144 175.217,63.894 174.270 C 59.433 157.381,61.441 133.593,68.678 117.585 C 74.918 103.781,81.781 94.381,93.270 83.902 C 95.152 82.186,104.887 75.000,105.331 75.000 C 105.475 75.000,106.612 74.348,107.856 73.552 C 109.101 72.756,111.369 71.529,112.897 70.826 C 118.691 68.160,120.069 67.562,121.032 67.292 C 121.577 67.139,122.381 66.861,122.817 66.674 C 123.871 66.224,126.104 65.474,127.579 65.074 C 128.234 64.896,129.780 64.475,131.015 64.136 C 133.200 63.538,135.800 63.025,140.675 62.232 C 146.809 61.234,156.964 61.103,163.690 61.935 " stroke="none" fill="#444444" fill-rule="evenodd"></path><path id="path1" d="M0.058 70.734 C 0.090 109.638,0.252 140.218,0.418 138.690 C 0.986 133.470,2.460 124.033,3.145 121.230 C 3.358 120.357,3.708 118.839,3.923 117.857 C 4.138 116.875,4.609 115.000,4.969 113.690 C 5.329 112.381,5.759 110.774,5.924 110.119 C 6.258 108.792,7.089 106.175,7.562 104.960 C 7.732 104.524,8.450 102.470,9.156 100.397 C 9.863 98.323,10.950 95.506,11.570 94.137 C 12.191 92.767,12.698 91.537,12.698 91.403 C 12.698 90.348,19.588 77.388,23.317 71.429 C 39.495 45.573,65.318 23.431,92.262 12.313 C 92.698 12.133,93.681 11.716,94.444 11.386 C 98.765 9.521,105.561 7.198,111.706 5.486 C 112.579 5.243,114.059 4.802,114.994 4.506 C 115.929 4.210,116.988 3.968,117.347 3.968 C 117.706 3.968,118.548 3.803,119.218 3.602 C 122.393 2.647,128.455 1.649,138.492 0.427 C 139.911 0.254,109.330 0.087,70.536 0.056 L 0.000 0.000 0.058 70.734 M168.056 0.439 C 174.351 1.171,181.728 2.250,183.929 2.763 C 189.343 4.023,194.384 5.255,195.238 5.526 C 195.784 5.699,197.302 6.154,198.611 6.538 C 199.921 6.921,201.349 7.378,201.786 7.553 C 202.222 7.728,204.276 8.449,206.349 9.155 C 208.423 9.861,211.427 11.036,213.025 11.767 C 214.623 12.497,216.020 13.095,216.129 13.095 C 216.454 13.095,226.609 18.140,228.968 19.473 C 233.619 22.102,244.363 29.144,245.238 30.136 C 245.347 30.260,246.508 31.153,247.817 32.120 C 252.704 35.728,262.053 44.541,268.680 51.786 C 277.024 60.908,289.896 81.062,293.643 90.873 C 294.144 92.185,294.440 92.892,296.307 97.222 C 296.730 98.204,297.836 101.419,298.765 104.365 C 299.693 107.312,300.596 110.079,300.772 110.516 C 300.948 110.952,301.392 112.649,301.759 114.286 C 302.524 117.697,303.077 119.923,303.580 121.627 C 303.774 122.282,304.139 124.335,304.393 126.190 C 304.646 128.046,305.005 130.546,305.190 131.746 C 307.003 143.456,307.002 163.052,305.188 175.198 C 304.144 182.189,303.410 185.793,301.794 191.865 C 301.214 194.048,300.568 196.548,300.360 197.421 C 299.995 198.951,299.483 200.516,298.802 202.183 C 298.624 202.619,297.900 204.673,297.193 206.746 C 296.486 208.819,295.423 211.587,294.832 212.897 C 294.240 214.206,293.358 216.171,292.871 217.262 C 291.755 219.763,289.654 223.979,288.620 225.794 C 288.184 226.558,287.241 228.254,286.524 229.563 C 285.807 230.873,285.064 232.114,284.872 232.321 C 284.069 233.190,284.715 234.211,288.178 237.549 C 290.188 239.486,294.787 243.949,298.397 247.466 C 302.007 250.982,305.853 254.710,306.944 255.749 C 309.267 257.960,329.385 277.445,337.666 285.504 C 344.839 292.484,347.040 294.617,353.417 300.766 C 362.189 309.227,381.283 327.781,385.707 332.143 C 389.646 336.028,392.857 339.647,392.857 340.202 C 392.857 340.333,393.278 341.061,393.793 341.820 C 394.307 342.578,395.221 344.416,395.823 345.905 C 396.425 347.393,397.065 348.968,397.245 349.405 C 403.342 364.210,393.992 386.633,378.729 393.807 C 375.491 395.329,375.047 395.514,373.016 396.192 C 371.360 396.744,372.280 396.789,385.615 396.806 L 400.000 396.825 400.000 198.413 L 400.000 0.000 282.639 0.058 C 218.090 0.090,166.528 0.262,168.056 0.439 M144.048 62.317 C 143.065 62.492,140.744 62.852,138.889 63.118 C 135.450 63.610,127.032 65.592,125.595 66.248 C 125.159 66.447,123.819 66.917,122.619 67.292 C 118.691 68.519,111.279 72.031,107.048 74.671 C 105.359 75.725,103.796 76.587,103.576 76.587 C 103.355 76.587,103.175 76.727,103.175 76.899 C 103.175 77.070,102.594 77.547,101.885 77.960 C 101.176 78.373,100.506 78.814,100.397 78.940 C 100.288 79.067,98.859 80.177,97.222 81.408 C 91.737 85.530,84.405 93.084,79.945 99.206 C 78.435 101.280,77.062 103.036,76.894 103.108 C 76.725 103.181,76.587 103.406,76.587 103.609 C 76.587 103.811,75.729 105.359,74.681 107.048 C 72.875 109.957,72.011 111.644,69.602 116.964 C 68.337 119.758,68.118 120.309,67.273 122.817 C 66.906 123.909,66.446 125.159,66.252 125.595 C 61.753 135.724,60.766 159.632,64.278 173.413 C 64.472 174.177,64.920 175.962,65.272 177.381 C 65.625 178.800,66.074 180.317,66.272 180.754 C 66.469 181.190,67.108 182.976,67.690 184.722 C 69.024 188.720,72.177 195.304,74.671 199.301 C 75.725 200.990,76.587 202.482,76.587 202.616 C 76.587 203.334,87.216 216.455,88.934 217.857 C 89.276 218.137,95.268 223.523,95.795 224.025 C 96.766 224.950,105.208 230.827,107.003 231.828 C 108.062 232.419,109.554 233.262,110.317 233.701 C 112.757 235.106,119.294 238.045,121.891 238.906 C 123.274 239.364,124.762 239.889,125.198 240.072 C 126.657 240.683,127.562 240.952,130.159 241.545 C 131.577 241.870,133.452 242.307,134.325 242.516 C 144.065 244.852,162.402 245.020,171.032 242.851 C 171.796 242.659,173.671 242.201,175.198 241.832 C 178.392 241.061,185.653 238.726,187.698 237.811 C 194.810 234.630,202.107 230.570,206.345 227.437 C 216.299 220.079,226.266 209.249,231.665 199.925 C 232.715 198.111,233.784 196.270,234.039 195.833 C 235.148 193.940,238.091 187.286,238.866 184.921 C 239.330 183.502,239.870 181.984,240.065 181.548 C 240.501 180.572,241.510 177.205,241.849 175.595 C 241.986 174.940,242.274 173.690,242.487 172.817 C 245.135 161.995,245.148 144.792,242.516 133.532 C 241.722 130.134,240.461 125.558,240.112 124.802 C 239.909 124.365,239.444 123.115,239.076 122.024 C 237.246 116.588,229.903 102.518,228.204 101.190 C 228.064 101.081,227.252 100.010,226.399 98.810 C 216.793 85.292,199.659 72.569,183.929 67.273 C 182.837 66.906,181.587 66.449,181.151 66.259 C 180.714 66.069,179.196 65.627,177.778 65.278 C 176.359 64.929,174.663 64.482,174.008 64.284 C 172.905 63.952,169.524 63.381,162.424 62.328 C 159.171 61.846,146.733 61.838,144.048 62.317 M0.056 281.250 L 0.000 396.825 176.687 396.794 C 273.864 396.777,353.105 396.674,352.778 396.567 C 352.142 396.357,351.981 396.292,348.016 394.655 C 346.597 394.069,344.008 392.626,342.262 391.448 C 338.962 389.222,337.231 387.632,323.982 374.661 C 319.603 370.373,310.406 361.420,303.545 354.765 C 296.685 348.110,287.946 339.615,284.127 335.887 C 280.308 332.159,274.155 326.176,270.456 322.590 C 263.133 315.494,251.869 304.540,241.873 294.795 C 231.073 284.266,232.108 285.148,231.213 285.707 C 230.429 286.197,226.619 288.249,222.024 290.657 C 220.714 291.343,218.661 292.319,217.460 292.827 C 216.260 293.334,214.474 294.105,213.492 294.540 C 211.088 295.604,209.596 296.213,207.937 296.806 C 207.173 297.079,206.190 297.448,205.754 297.626 C 203.729 298.453,197.200 300.550,195.238 301.005 C 194.038 301.283,191.716 301.860,190.079 302.288 C 188.442 302.716,186.121 303.259,184.921 303.494 C 183.720 303.730,181.756 304.113,180.556 304.347 C 162.817 307.799,136.996 307.221,119.246 302.974 C 113.998 301.718,113.290 301.550,111.905 301.233 C 107.779 300.287,88.030 292.896,86.310 291.654 C 86.091 291.496,83.607 290.163,80.790 288.690 C 73.031 284.636,56.655 273.712,54.365 271.063 C 54.256 270.937,52.301 269.137,50.021 267.063 C 45.768 263.196,39.471 256.835,37.451 254.365 C 36.826 253.601,36.099 252.749,35.835 252.470 C 35.570 252.192,34.676 251.121,33.848 250.089 C 33.019 249.058,32.243 248.125,32.124 248.016 C 30.777 246.788,22.640 234.581,19.692 229.365 C 17.415 225.337,11.905 214.058,11.905 213.426 C 11.905 213.113,11.752 212.688,11.566 212.480 C 11.127 211.993,8.643 205.468,7.343 201.389 C 3.817 190.323,2.086 182.037,0.424 168.254 C 0.253 166.835,0.087 217.684,0.056 281.250 " stroke="none" fill="#fbfbfb" fill-rule="evenodd"></path><path id="path2" d="M141.369 0.274 C 141.751 0.373,142.376 0.373,142.758 0.274 C 143.140 0.174,142.827 0.092,142.063 0.092 C 141.300 0.092,140.987 0.174,141.369 0.274 M137.401 0.681 C 138.001 0.772,138.983 0.772,139.583 0.681 C 140.184 0.590,139.692 0.516,138.492 0.516 C 137.292 0.516,136.801 0.590,137.401 0.681 M167.163 0.681 C 167.763 0.772,168.745 0.772,169.345 0.681 C 169.945 0.590,169.454 0.516,168.254 0.516 C 167.054 0.516,166.563 0.590,167.163 0.681 M129.762 1.582 C 129.357 1.841,129.673 1.884,130.754 1.718 C 132.716 1.418,133.050 1.188,131.515 1.197 C 130.878 1.200,130.089 1.373,129.762 1.582 M174.239 1.336 C 174.330 1.416,175.119 1.591,175.992 1.724 C 177.098 1.892,177.339 1.856,176.786 1.606 C 176.024 1.261,173.898 1.036,174.239 1.336 M119.048 3.590 C 118.613 3.884,118.773 3.921,119.643 3.726 C 121.102 3.400,121.419 3.173,120.403 3.181 C 119.985 3.184,119.375 3.368,119.048 3.590 M186.310 3.571 C 186.746 3.759,187.371 3.912,187.698 3.912 C 188.074 3.912,188.000 3.786,187.500 3.571 C 187.063 3.384,186.438 3.230,186.111 3.230 C 185.736 3.230,185.809 3.356,186.310 3.571 M115.476 4.365 C 114.679 4.620,114.640 4.685,115.278 4.694 C 115.714 4.701,116.429 4.553,116.865 4.365 C 117.876 3.931,116.833 3.931,115.476 4.365 M101.786 8.546 C 100.793 9.024,100.760 9.079,101.587 8.877 C 102.712 8.602,103.976 7.958,103.373 7.966 C 103.155 7.970,102.440 8.230,101.786 8.546 M208.730 10.251 C 209.058 10.453,209.772 10.738,210.317 10.884 C 211.007 11.068,211.128 11.037,210.714 10.781 C 210.387 10.579,209.673 10.294,209.127 10.148 C 208.438 9.964,208.316 9.995,208.730 10.251 M221.858 16.023 C 222.264 16.390,225.397 17.853,225.397 17.675 C 225.397 17.449,222.402 15.873,221.973 15.873 C 221.819 15.873,221.768 15.940,221.858 16.023 M60.086 31.179 L 58.532 32.597 60.218 31.311 C 61.759 30.137,62.135 29.762,61.772 29.762 C 61.700 29.762,60.941 30.400,60.086 31.179 M248.413 32.629 C 248.413 32.715,249.439 33.658,250.694 34.726 C 251.949 35.793,252.619 36.254,252.183 35.750 C 251.354 34.792,248.413 32.358,248.413 32.629 M49.206 40.278 C 48.242 41.260,47.543 42.063,47.652 42.063 C 47.761 42.063,48.639 41.260,49.603 40.278 C 50.567 39.296,51.266 38.492,51.157 38.492 C 51.048 38.492,50.170 39.296,49.206 40.278 M258.730 41.865 C 260.136 43.284,261.376 44.444,261.485 44.444 C 261.594 44.444,260.533 43.284,259.127 41.865 C 257.721 40.446,256.481 39.286,256.372 39.286 C 256.263 39.286,257.324 40.446,258.730 41.865 M263.690 46.825 C 264.765 47.917,265.734 48.810,265.843 48.810 C 265.952 48.810,265.162 47.917,264.087 46.825 C 263.012 45.734,262.044 44.841,261.935 44.841 C 261.825 44.841,262.616 45.734,263.690 46.825 M39.862 49.702 L 38.294 51.389 39.980 49.820 C 41.549 48.361,41.849 48.016,41.549 48.016 C 41.484 48.016,40.725 48.775,39.862 49.702 M266.270 49.454 C 266.270 49.664,267.118 50.631,268.155 51.604 L 270.040 53.373 268.254 51.396 C 267.272 50.309,266.424 49.342,266.369 49.247 C 266.314 49.152,266.270 49.245,266.270 49.454 M36.735 53.137 L 35.573 54.563 36.913 53.287 C 37.650 52.584,38.173 51.942,38.075 51.860 C 37.977 51.778,37.374 52.353,36.735 53.137 M271.457 55.342 C 271.970 56.275,273.412 58.018,273.402 57.692 C 273.396 57.499,272.905 56.799,272.311 56.135 C 271.716 55.472,271.332 55.115,271.457 55.342 M152.683 61.789 C 153.177 61.884,153.891 61.880,154.270 61.781 C 154.650 61.681,154.246 61.604,153.373 61.608 C 152.500 61.612,152.190 61.694,152.683 61.789 M276.976 62.686 C 277.437 63.335,278.017 63.990,278.265 64.143 C 278.513 64.296,278.215 63.766,277.604 62.965 C 276.278 61.226,275.778 61.004,276.976 62.686 M142.460 62.302 C 141.121 62.583,141.114 62.594,142.262 62.599 C 142.917 62.602,143.988 62.468,144.643 62.302 C 146.290 61.883,144.451 61.883,142.460 62.302 M162.103 62.324 C 162.976 62.505,164.137 62.642,164.683 62.630 C 165.319 62.615,165.106 62.489,164.087 62.279 C 163.214 62.098,162.054 61.961,161.508 61.973 C 160.872 61.988,161.085 62.114,162.103 62.324 M173.810 64.268 C 174.137 64.489,174.747 64.673,175.165 64.676 C 176.181 64.685,175.864 64.457,174.405 64.131 C 173.535 63.937,173.375 63.973,173.810 64.268 M126.984 65.494 C 126.549 65.788,126.710 65.825,127.579 65.631 C 129.038 65.304,129.355 65.077,128.340 65.085 C 127.922 65.089,127.312 65.273,126.984 65.494 M177.811 65.222 C 177.902 65.300,178.512 65.484,179.167 65.631 C 180.036 65.825,180.197 65.788,179.762 65.494 C 179.226 65.132,177.413 64.879,177.811 65.222 M25.886 67.361 C 24.858 68.845,24.524 69.444,24.725 69.444 C 24.818 69.444,25.367 68.730,25.945 67.857 C 27.119 66.083,27.068 65.654,25.886 67.361 M193.254 71.230 C 193.800 71.542,194.425 71.797,194.643 71.797 C 194.861 71.797,194.593 71.542,194.048 71.230 C 193.502 70.918,192.877 70.663,192.659 70.663 C 192.440 70.663,192.708 70.918,193.254 71.230 M101.587 77.813 C 100.928 78.352,100.862 78.487,101.389 78.215 C 102.683 77.546,103.401 76.996,102.976 76.999 C 102.758 77.001,102.133 77.367,101.587 77.813 M92.857 84.722 C 91.893 85.704,91.194 86.508,91.303 86.508 C 91.412 86.508,92.290 85.704,93.254 84.722 C 94.218 83.740,94.917 82.937,94.808 82.937 C 94.699 82.937,93.821 83.740,92.857 84.722 M88.479 88.790 L 86.310 91.071 88.591 88.902 C 90.711 86.887,91.055 86.508,90.760 86.508 C 90.698 86.508,89.671 87.535,88.479 88.790 M221.032 92.262 C 221.772 93.026,222.467 93.651,222.576 93.651 C 222.685 93.651,222.169 93.026,221.429 92.262 C 220.688 91.498,219.993 90.873,219.884 90.873 C 219.775 90.873,220.291 91.498,221.032 92.262 M84.899 92.758 L 83.532 94.246 85.020 92.879 C 86.405 91.606,86.690 91.270,86.387 91.270 C 86.321 91.270,85.651 91.939,84.899 92.758 M226.471 98.964 C 227.299 100.140,228.042 101.042,228.123 100.967 C 228.290 100.812,225.426 96.825,225.148 96.825 C 225.048 96.825,225.644 97.788,226.471 98.964 M78.529 100.606 C 77.618 101.812,76.943 102.859,77.028 102.933 C 77.113 103.007,77.940 102.020,78.865 100.740 C 80.998 97.790,80.734 97.684,78.529 100.606 M301.593 114.914 C 301.597 115.332,301.781 115.942,302.002 116.270 C 302.296 116.705,302.333 116.544,302.139 115.675 C 301.812 114.216,301.585 113.899,301.593 114.914 M303.431 122.619 C 303.745 124.330,303.970 124.653,303.962 123.380 C 303.959 122.852,303.781 122.153,303.566 121.825 C 303.291 121.407,303.251 121.642,303.431 122.619 M1.445 130.242 C 1.311 130.742,1.217 131.508,1.236 131.944 C 1.255 132.381,1.434 132.041,1.633 131.190 C 2.020 129.541,1.855 128.711,1.445 130.242 M242.516 133.730 C 242.516 134.058,242.670 134.683,242.857 135.119 C 243.072 135.619,243.198 135.693,243.198 135.317 C 243.198 134.990,243.045 134.365,242.857 133.929 C 242.642 133.428,242.516 133.355,242.516 133.730 M63.349 135.401 C 63.216 135.901,63.122 136.667,63.141 137.103 C 63.159 137.540,63.338 137.200,63.538 136.349 C 63.925 134.700,63.760 133.869,63.349 135.401 M305.669 136.706 C 305.672 137.798,305.749 138.197,305.840 137.594 C 305.932 136.991,305.929 136.098,305.835 135.610 C 305.741 135.122,305.666 135.615,305.669 136.706 M0.516 138.492 C 0.516 139.692,0.590 140.184,0.681 139.583 C 0.772 138.983,0.772 138.001,0.681 137.401 C 0.590 136.801,0.516 137.292,0.516 138.492 M243.679 140.509 C 243.694 141.255,243.861 142.222,244.050 142.659 C 244.272 143.169,244.313 142.745,244.165 141.468 C 243.892 139.109,243.640 138.610,243.679 140.509 M306.060 141.270 C 306.060 142.252,306.138 142.654,306.232 142.163 C 306.327 141.672,306.327 140.868,306.232 140.377 C 306.138 139.886,306.060 140.288,306.060 141.270 M62.088 144.231 C 61.934 145.460,61.895 146.551,61.999 146.655 C 62.104 146.760,62.309 145.834,62.454 144.597 C 62.600 143.360,62.639 142.269,62.543 142.172 C 62.446 142.076,62.241 143.002,62.088 144.231 M306.512 153.373 C 306.511 157.083,306.571 158.655,306.644 156.865 C 306.717 155.075,306.718 152.039,306.645 150.119 C 306.572 148.198,306.512 149.663,306.512 153.373 M244.575 149.802 C 244.576 151.329,244.648 151.906,244.734 151.082 C 244.820 150.259,244.819 149.009,244.731 148.305 C 244.643 147.600,244.573 148.274,244.575 149.802 M244.575 156.548 C 244.576 158.075,244.648 158.652,244.734 157.828 C 244.820 157.005,244.819 155.755,244.731 155.051 C 244.643 154.346,244.573 155.020,244.575 156.548 M61.977 160.516 C 61.963 161.171,62.098 162.421,62.279 163.294 C 62.711 165.383,62.748 163.506,62.322 161.111 C 62.084 159.772,61.997 159.623,61.977 160.516 M0.092 164.683 C 0.092 165.446,0.174 165.759,0.274 165.377 C 0.373 164.995,0.373 164.370,0.274 163.988 C 0.174 163.606,0.092 163.919,0.092 164.683 M306.044 165.476 C 306.044 166.240,306.126 166.553,306.226 166.171 C 306.326 165.789,306.326 165.164,306.226 164.782 C 306.126 164.400,306.044 164.712,306.044 165.476 M243.743 165.873 C 243.743 166.637,243.825 166.949,243.924 166.567 C 244.024 166.186,244.024 165.561,243.924 165.179 C 243.825 164.797,243.743 165.109,243.743 165.873 M0.516 168.254 C 0.516 169.454,0.590 169.945,0.681 169.345 C 0.772 168.745,0.772 167.763,0.681 167.163 C 0.590 166.563,0.516 167.054,0.516 168.254 M305.674 169.444 C 305.674 170.645,305.749 171.136,305.840 170.536 C 305.931 169.936,305.931 168.953,305.840 168.353 C 305.749 167.753,305.674 168.244,305.674 169.444 M63.163 169.643 C 63.156 170.079,63.304 170.794,63.492 171.230 C 63.927 172.241,63.927 171.198,63.492 169.841 C 63.237 169.044,63.172 169.005,63.163 169.643 M242.687 171.655 C 242.541 172.237,242.498 172.789,242.592 172.883 C 242.685 172.976,242.881 172.577,243.027 171.995 C 243.173 171.414,243.216 170.862,243.123 170.768 C 243.029 170.674,242.833 171.074,242.687 171.655 M1.218 175.430 C 1.234 175.957,1.408 176.746,1.606 177.183 C 1.856 177.736,1.892 177.495,1.724 176.389 C 1.443 174.546,1.178 174.043,1.218 175.430 M304.811 175.992 C 304.778 176.429,304.659 177.232,304.547 177.778 L 304.343 178.770 304.768 177.796 C 305.002 177.261,305.120 176.457,305.031 176.011 C 304.874 175.219,304.868 175.219,304.811 175.992 M303.625 182.540 C 303.590 183.085,303.469 183.978,303.356 184.524 L 303.152 185.516 303.578 184.539 C 303.813 184.002,303.934 183.109,303.848 182.555 L 303.690 181.548 303.625 182.540 M66.894 183.333 C 67.040 183.879,67.325 184.593,67.527 184.921 C 67.783 185.334,67.814 185.213,67.630 184.524 C 67.484 183.978,67.199 183.264,66.997 182.937 C 66.741 182.523,66.710 182.644,66.894 183.333 M238.933 184.568 C 238.689 185.269,238.558 185.912,238.643 185.997 C 238.728 186.082,238.997 185.578,239.242 184.877 C 239.486 184.175,239.617 183.532,239.532 183.447 C 239.447 183.362,239.177 183.867,238.933 184.568 M3.181 186.343 C 3.184 186.761,3.368 187.371,3.590 187.698 C 3.884 188.133,3.921 187.973,3.726 187.103 C 3.400 185.644,3.173 185.327,3.181 186.343 M4.024 189.683 C 4.024 190.010,4.178 190.635,4.365 191.071 C 4.580 191.572,4.706 191.645,4.706 191.270 C 4.706 190.942,4.553 190.317,4.365 189.881 C 4.150 189.381,4.024 189.307,4.024 189.683 M8.164 203.968 C 8.310 204.514,8.595 205.228,8.797 205.556 C 9.053 205.969,9.084 205.848,8.900 205.159 C 8.754 204.613,8.469 203.899,8.266 203.571 C 8.011 203.158,7.980 203.279,8.164 203.968 M80.214 208.153 C 80.927 209.145,81.776 210.172,82.102 210.435 C 82.428 210.698,81.924 209.886,80.982 208.631 C 78.956 205.931,78.346 205.551,80.214 208.153 M224.777 209.790 C 224.166 210.591,223.868 211.122,224.116 210.969 C 224.624 210.655,226.342 208.333,226.066 208.333 C 225.968 208.333,225.388 208.989,224.777 209.790 M83.929 212.698 C 84.781 213.571,85.568 214.286,85.677 214.286 C 85.786 214.286,85.178 213.571,84.325 212.698 C 83.473 211.825,82.686 211.111,82.577 211.111 C 82.468 211.111,83.076 211.825,83.929 212.698 M221.612 213.591 L 219.643 215.675 221.726 213.705 C 223.662 211.876,223.992 211.508,223.695 211.508 C 223.633 211.508,222.695 212.445,221.612 213.591 M86.905 216.071 C 87.645 216.835,88.340 217.460,88.449 217.460 C 88.558 217.460,88.042 216.835,87.302 216.071 C 86.561 215.308,85.866 214.683,85.757 214.683 C 85.648 214.683,86.164 215.308,86.905 216.071 M217.681 217.832 L 216.116 219.643 217.860 217.970 C 218.819 217.050,219.523 216.235,219.425 216.159 C 219.327 216.083,218.542 216.836,217.681 217.832 M90.363 219.447 C 91.283 220.406,92.098 221.111,92.174 221.012 C 92.250 220.914,91.497 220.129,90.501 219.268 L 88.690 217.703 90.363 219.447 M213.074 222.123 L 211.706 223.611 213.194 222.244 C 214.580 220.971,214.865 220.635,214.562 220.635 C 214.496 220.635,213.826 221.305,213.074 222.123 M94.220 222.910 C 95.079 223.833,95.868 224.503,95.973 224.397 C 96.078 224.292,96.088 224.162,95.994 224.107 C 95.901 224.053,95.112 223.383,94.242 222.620 L 92.659 221.231 94.220 222.910 M209.722 224.861 C 208.527 225.929,208.438 226.077,209.361 225.460 C 210.458 224.726,211.837 223.389,211.457 223.428 C 211.376 223.436,210.595 224.081,209.722 224.861 M100.794 227.922 C 100.794 228.031,101.329 228.502,101.984 228.968 C 102.639 229.434,103.175 229.727,103.175 229.618 C 103.175 229.508,102.639 229.038,101.984 228.571 C 101.329 228.105,100.794 227.813,100.794 227.922 M22.171 233.532 C 22.386 233.968,22.852 234.683,23.207 235.119 L 23.853 235.913 23.464 235.119 C 23.249 234.683,22.783 233.968,22.428 233.532 L 21.782 232.738 22.171 233.532 M288.095 237.897 C 289.941 239.752,291.540 241.270,291.649 241.270 C 291.758 241.270,290.338 239.752,288.492 237.897 C 286.647 236.042,285.047 234.524,284.938 234.524 C 284.829 234.524,286.250 236.042,288.095 237.897 M181.944 239.895 C 180.952 240.373,180.919 240.428,181.746 240.226 C 182.870 239.951,184.134 239.307,183.532 239.316 C 183.313 239.319,182.599 239.580,181.944 239.895 M129.563 241.667 C 130.000 241.854,130.714 242.002,131.151 241.996 C 131.789 241.987,131.750 241.922,130.952 241.667 C 129.596 241.232,128.552 241.232,129.563 241.667 M175.794 241.667 C 174.976 241.928,174.941 241.990,175.595 242.018 C 176.032 242.036,176.657 241.878,176.984 241.667 C 177.679 241.217,177.197 241.217,175.794 241.667 M140.575 243.924 C 140.957 244.024,141.582 244.024,141.964 243.924 C 142.346 243.825,142.034 243.743,141.270 243.743 C 140.506 243.743,140.193 243.825,140.575 243.924 M164.782 243.924 C 165.164 244.024,165.789 244.024,166.171 243.924 C 166.553 243.825,166.240 243.743,165.476 243.743 C 164.712 243.743,164.400 243.825,164.782 243.924 M298.214 247.619 C 300.169 249.583,301.858 251.190,301.968 251.190 C 302.077 251.190,300.566 249.583,298.611 247.619 C 296.656 245.655,294.967 244.048,294.858 244.048 C 294.749 244.048,296.259 245.655,298.214 247.619 M150.694 244.738 C 152.059 244.816,154.291 244.816,155.655 244.738 C 157.019 244.661,155.903 244.597,153.175 244.597 C 150.446 244.597,149.330 244.661,150.694 244.738 M40.079 257.341 C 41.265 258.542,42.324 259.524,42.433 259.524 C 42.542 259.524,41.662 258.542,40.476 257.341 C 39.291 256.141,38.231 255.159,38.122 255.159 C 38.013 255.159,38.894 256.141,40.079 257.341 M311.905 260.913 C 313.970 262.986,315.748 264.683,315.857 264.683 C 315.966 264.683,314.366 262.986,312.302 260.913 C 310.237 258.839,308.458 257.143,308.349 257.143 C 308.240 257.143,309.840 258.839,311.905 260.913 M45.678 262.996 C 45.701 263.160,46.728 264.181,47.959 265.265 L 50.198 267.236 48.029 264.967 C 45.818 262.654,45.603 262.473,45.678 262.996 M52.183 269.048 C 53.035 269.921,53.822 270.635,53.931 270.635 C 54.040 270.635,53.432 269.921,52.579 269.048 C 51.727 268.175,50.940 267.460,50.831 267.460 C 50.722 267.460,51.330 268.175,52.183 269.048 M324.802 273.413 C 326.757 275.377,328.446 276.984,328.555 276.984 C 328.664 276.984,327.154 275.377,325.198 273.413 C 323.243 271.448,321.554 269.841,321.445 269.841 C 321.336 269.841,322.846 271.448,324.802 273.413 M58.333 273.941 C 58.333 274.050,59.048 274.705,59.921 275.397 C 60.794 276.088,61.508 276.565,61.508 276.456 C 61.508 276.346,60.794 275.691,59.921 275.000 C 59.048 274.309,58.333 273.832,58.333 273.941 M63.856 278.319 C 64.385 278.970,65.873 279.953,65.873 279.652 C 65.873 279.576,65.293 279.089,64.583 278.570 C 63.785 277.986,63.508 277.890,63.856 278.319 M336.104 284.226 C 339.968 288.188,340.476 288.672,340.476 288.386 C 340.476 288.327,338.557 286.408,336.210 284.120 L 331.944 279.960 336.104 284.226 M241.661 294.544 C 246.632 299.612,247.222 300.180,247.222 299.895 C 247.222 299.838,244.767 297.382,241.766 294.439 L 236.310 289.087 241.661 294.544 M351.778 299.512 C 353.957 301.745,355.781 303.571,355.833 303.571 C 356.270 303.571,354.844 302.027,351.626 299.016 L 347.817 295.452 351.778 299.512 M196.429 300.397 C 195.611 300.659,195.576 300.720,196.230 300.748 C 196.667 300.766,197.292 300.608,197.619 300.397 C 198.314 299.947,197.832 299.947,196.429 300.397 M110.119 300.794 C 110.556 300.981,111.181 301.135,111.508 301.135 C 111.883 301.135,111.810 301.009,111.310 300.794 C 110.873 300.606,110.248 300.453,109.921 300.453 C 109.545 300.453,109.619 300.579,110.119 300.794 M113.492 301.569 C 113.819 301.791,114.430 301.975,114.848 301.978 C 115.863 301.986,115.546 301.759,114.087 301.433 C 113.218 301.238,113.057 301.275,113.492 301.569 M117.493 302.524 C 117.584 302.602,118.194 302.786,118.849 302.932 C 119.719 303.127,119.879 303.090,119.444 302.796 C 118.909 302.433,117.095 302.180,117.493 302.524 M187.103 302.778 C 186.092 303.212,187.135 303.212,188.492 302.778 C 189.290 302.522,189.328 302.458,188.690 302.448 C 188.254 302.442,187.540 302.590,187.103 302.778 M121.825 303.553 C 122.153 303.775,122.763 303.959,123.181 303.962 C 124.196 303.970,123.880 303.743,122.421 303.417 C 121.551 303.222,121.391 303.259,121.825 303.553 M255.556 308.135 C 258.277 310.863,260.593 313.095,260.702 313.095 C 260.812 313.095,258.674 310.863,255.952 308.135 C 253.231 305.407,250.915 303.175,250.806 303.175 C 250.696 303.175,252.834 305.407,255.556 308.135 M127.480 304.639 C 127.862 304.738,128.487 304.738,128.869 304.639 C 129.251 304.539,128.938 304.457,128.175 304.457 C 127.411 304.457,127.098 304.539,127.480 304.639 M176.190 304.781 C 175.521 305.009,175.844 305.044,177.183 304.889 C 178.274 304.763,179.241 304.594,179.332 304.513 C 179.644 304.234,177.182 304.444,176.190 304.781 M133.929 305.553 C 134.687 305.881,137.613 306.107,137.269 305.810 C 137.178 305.731,136.210 305.564,135.119 305.438 C 133.843 305.291,133.418 305.331,133.929 305.553 M170.635 305.556 L 168.849 305.833 170.437 305.865 C 171.310 305.882,172.381 305.743,172.817 305.556 C 173.737 305.160,173.176 305.160,170.635 305.556 M361.706 309.127 C 363.881 311.310,365.749 313.095,365.858 313.095 C 365.967 313.095,364.278 311.310,362.103 309.127 C 359.929 306.944,358.061 305.159,357.951 305.159 C 357.842 305.159,359.532 306.944,361.706 309.127 M141.369 306.226 C 141.751 306.326,142.376 306.326,142.758 306.226 C 143.140 306.126,142.827 306.044,142.063 306.044 C 141.300 306.044,140.987 306.126,141.369 306.226 M148.535 306.646 C 151.330 306.714,155.795 306.714,158.456 306.645 C 161.117 306.577,158.829 306.521,153.373 306.521 C 147.917 306.521,145.740 306.578,148.535 306.646 M268.056 320.238 C 270.449 322.639,272.496 324.603,272.606 324.603 C 272.715 324.603,270.846 322.639,268.452 320.238 C 266.059 317.837,264.012 315.873,263.902 315.873 C 263.793 315.873,265.662 317.837,268.056 320.238 M375.595 322.619 C 377.989 325.020,380.036 326.984,380.145 326.984 C 380.254 326.984,378.385 325.020,375.992 322.619 C 373.599 320.218,371.551 318.254,371.442 318.254 C 371.333 318.254,373.202 320.218,375.595 322.619 M284.921 336.706 C 287.642 339.435,289.958 341.667,290.067 341.667 C 290.177 341.667,288.039 339.435,285.317 336.706 C 282.596 333.978,280.280 331.746,280.171 331.746 C 280.062 331.746,282.199 333.978,284.921 336.706 M391.309 338.492 C 392.026 339.474,392.668 340.352,392.735 340.443 C 392.802 340.534,392.854 340.445,392.851 340.245 C 392.848 340.045,392.206 339.167,391.425 338.294 L 390.004 336.706 391.309 338.492 M295.437 346.825 C 297.392 348.790,299.081 350.397,299.190 350.397 C 299.299 350.397,297.789 348.790,295.833 346.825 C 293.878 344.861,292.189 343.254,292.080 343.254 C 291.971 343.254,293.481 344.861,295.437 346.825 M301.174 352.480 C 302.147 353.517,302.995 354.365,303.059 354.365 C 303.357 354.365,303.042 354.009,301.290 352.364 L 299.405 350.595 301.174 352.480 M307.594 358.631 C 307.624 358.795,309.633 360.801,312.059 363.089 L 316.468 367.249 312.110 362.791 C 307.710 358.291,307.496 358.093,307.594 358.631 M398.268 365.729 C 398.128 366.752,398.090 367.666,398.183 367.760 C 398.277 367.853,398.477 367.102,398.629 366.089 C 398.781 365.077,398.819 364.163,398.714 364.058 C 398.609 363.953,398.409 364.705,398.268 365.729 M326.786 377.381 C 329.835 380.437,332.420 382.937,332.529 382.937 C 332.638 382.937,330.232 380.437,327.183 377.381 C 324.133 374.325,321.548 371.825,321.439 371.825 C 321.330 371.825,323.736 374.325,326.786 377.381 M390.575 383.711 C 389.866 384.565,389.286 385.382,389.286 385.527 C 389.286 385.671,389.911 385.041,390.675 384.127 C 391.931 382.624,392.253 382.129,391.964 382.150 C 391.910 382.154,391.285 382.856,390.575 383.711 M337.500 387.698 C 338.575 388.790,339.544 389.683,339.653 389.683 C 339.762 389.683,338.972 388.790,337.897 387.698 C 336.822 386.607,335.853 385.714,335.744 385.714 C 335.635 385.714,336.425 386.607,337.500 387.698 M382.224 391.440 C 380.380 392.743,380.121 393.116,381.677 392.224 C 382.403 391.809,383.184 391.245,383.412 390.972 C 383.999 390.271,383.724 390.379,382.224 391.440 " stroke="none" fill="#b2b1b1" fill-rule="evenodd"></path><path id="path3" d="M142.857 0.397 L 141.468 0.689 143.056 0.702 C 143.929 0.709,145.089 0.572,145.635 0.397 C 146.993 -0.038,144.924 -0.038,142.857 0.397 M160.913 0.397 C 161.567 0.563,162.817 0.700,163.690 0.701 L 165.278 0.702 163.690 0.374 C 162.817 0.193,161.567 0.057,160.913 0.070 L 159.722 0.094 160.913 0.397 M134.032 1.471 C 134.526 1.566,135.240 1.562,135.620 1.463 C 135.999 1.364,135.595 1.286,134.722 1.291 C 133.849 1.295,133.539 1.376,134.032 1.471 M171.334 1.471 C 171.828 1.566,172.542 1.562,172.921 1.463 C 173.301 1.364,172.897 1.286,172.024 1.291 C 171.151 1.295,170.840 1.376,171.334 1.471 M48.399 41.567 L 46.230 43.849 48.512 41.680 C 50.632 39.665,50.975 39.286,50.681 39.286 C 50.619 39.286,49.592 40.313,48.399 41.567 M258.135 41.667 C 259.431 42.976,260.580 44.048,260.689 44.048 C 260.799 44.048,259.828 42.976,258.532 41.667 C 257.236 40.357,256.086 39.286,255.977 39.286 C 255.868 39.286,256.839 40.357,258.135 41.667 M263.095 46.553 C 263.095 46.621,263.676 47.201,264.385 47.842 L 265.675 49.008 264.509 47.718 C 263.423 46.516,263.095 46.246,263.095 46.553 M40.662 49.306 L 38.294 51.786 40.774 49.417 C 43.078 47.217,43.436 46.825,43.142 46.825 C 43.081 46.825,41.965 47.941,40.662 49.306 M267.262 51.190 C 268.114 52.063,268.901 52.778,269.010 52.778 C 269.119 52.778,268.511 52.063,267.659 51.190 C 266.806 50.317,266.019 49.603,265.910 49.603 C 265.801 49.603,266.409 50.317,267.262 51.190 M152.683 61.392 C 153.177 61.487,153.891 61.483,154.270 61.384 C 154.650 61.284,154.246 61.207,153.373 61.211 C 152.500 61.216,152.190 61.297,152.683 61.392 M145.546 61.799 C 146.480 61.883,147.908 61.882,148.721 61.796 C 149.533 61.711,148.770 61.643,147.024 61.644 C 145.278 61.645,144.613 61.715,145.546 61.799 M157.848 61.799 C 158.781 61.883,160.210 61.882,161.022 61.796 C 161.835 61.711,161.071 61.643,159.325 61.644 C 157.579 61.645,156.914 61.715,157.848 61.799 M166.303 62.447 C 166.394 62.528,167.183 62.702,168.056 62.835 C 169.162 63.003,169.402 62.968,168.849 62.717 C 168.087 62.372,165.962 62.147,166.303 62.447 M93.031 84.226 L 91.865 85.516 93.155 84.350 C 94.357 83.264,94.627 82.937,94.320 82.937 C 94.252 82.937,93.672 83.517,93.031 84.226 M214.286 85.119 C 215.026 85.883,215.721 86.508,215.830 86.508 C 215.939 86.508,215.423 85.883,214.683 85.119 C 213.942 84.355,213.247 83.730,213.138 83.730 C 213.029 83.730,213.545 84.355,214.286 85.119 M88.868 87.996 L 87.500 89.484 88.988 88.117 C 90.373 86.844,90.659 86.508,90.356 86.508 C 90.289 86.508,89.620 87.178,88.868 87.996 M221.032 91.865 C 221.772 92.629,222.467 93.254,222.576 93.254 C 222.685 93.254,222.169 92.629,221.429 91.865 C 220.688 91.101,219.993 90.476,219.884 90.476 C 219.775 90.476,220.291 91.101,221.032 91.865 M83.904 93.353 L 82.738 94.643 84.028 93.477 C 85.230 92.391,85.500 92.063,85.193 92.063 C 85.125 92.063,84.545 92.644,83.904 93.353 M238.323 119.048 C 238.469 119.593,238.754 120.308,238.956 120.635 C 239.211 121.049,239.243 120.928,239.058 120.238 C 238.912 119.692,238.627 118.978,238.425 118.651 C 238.170 118.237,238.138 118.358,238.323 119.048 M65.520 125.838 C 65.276 126.539,65.145 127.182,65.230 127.267 C 65.315 127.352,65.584 126.848,65.829 126.146 C 66.073 125.445,66.204 124.802,66.119 124.717 C 66.034 124.632,65.765 125.136,65.520 125.838 M242.466 132.374 C 242.470 132.793,242.654 133.403,242.875 133.730 C 243.169 134.165,243.206 134.004,243.012 133.135 C 242.685 131.676,242.458 131.359,242.466 132.374 M304.790 133.168 C 304.805 133.805,304.976 134.683,305.169 135.119 C 305.404 135.649,305.442 135.319,305.284 134.127 C 305.006 132.024,304.750 131.527,304.790 133.168 M1.291 134.722 C 1.295 135.595,1.376 135.906,1.471 135.412 C 1.566 134.918,1.562 134.204,1.463 133.825 C 1.364 133.445,1.286 133.849,1.291 134.722 M62.394 140.079 C 62.394 140.843,62.475 141.156,62.575 140.774 C 62.675 140.392,62.675 139.767,62.575 139.385 C 62.475 139.003,62.394 139.315,62.394 140.079 M305.669 141.468 C 305.672 142.560,305.749 142.959,305.840 142.356 C 305.932 141.752,305.929 140.860,305.835 140.372 C 305.741 139.883,305.666 140.377,305.669 141.468 M0.239 144.178 C 0.069 145.668,0.020 146.978,0.131 147.088 C 0.408 147.365,0.910 143.136,0.710 142.215 C 0.620 141.804,0.408 142.688,0.239 144.178 M244.545 143.849 C 244.549 144.722,244.630 145.033,244.725 144.539 C 244.820 144.045,244.816 143.331,244.717 142.952 C 244.618 142.572,244.540 142.976,244.545 143.849 M306.066 145.833 C 306.069 146.925,306.146 147.324,306.237 146.721 C 306.328 146.118,306.326 145.225,306.232 144.737 C 306.138 144.249,306.063 144.742,306.066 145.833 M61.649 148.611 C 61.648 150.575,61.715 151.429,61.798 150.508 C 61.881 149.587,61.882 147.980,61.800 146.937 C 61.718 145.893,61.650 146.647,61.649 148.611 M244.960 149.603 C 244.960 150.804,245.035 151.295,245.125 150.694 C 245.216 150.094,245.216 149.112,245.125 148.512 C 245.035 147.912,244.960 148.403,244.960 149.603 M61.647 157.937 C 61.647 159.792,61.715 160.551,61.798 159.623 C 61.882 158.695,61.882 157.178,61.798 156.250 C 61.715 155.322,61.647 156.081,61.647 157.937 M244.960 156.746 C 244.960 157.946,245.035 158.438,245.125 157.837 C 245.216 157.237,245.216 156.255,245.125 155.655 C 245.035 155.055,244.960 155.546,244.960 156.746 M306.099 159.524 C 306.099 161.815,306.165 162.753,306.245 161.607 C 306.325 160.461,306.325 158.586,306.245 157.440 C 306.165 156.295,306.099 157.232,306.099 159.524 M0.070 160.913 C 0.057 161.567,0.193 162.817,0.374 163.690 L 0.702 165.278 0.701 163.690 C 0.700 162.817,0.563 161.567,0.397 160.913 L 0.094 159.722 0.070 160.913 M244.553 162.698 C 244.553 163.681,244.630 164.082,244.724 163.591 C 244.819 163.100,244.819 162.297,244.724 161.806 C 244.630 161.314,244.553 161.716,244.553 162.698 M305.656 165.278 C 305.660 166.151,305.741 166.461,305.836 165.968 C 305.931 165.474,305.928 164.760,305.828 164.380 C 305.729 164.001,305.651 164.405,305.656 165.278 M243.699 168.452 C 243.667 168.889,243.548 169.692,243.436 170.238 L 243.232 171.230 243.657 170.257 C 243.890 169.721,244.009 168.918,243.920 168.471 C 243.763 167.680,243.757 167.679,243.699 168.452 M1.291 172.024 C 1.295 172.897,1.376 173.207,1.471 172.714 C 1.566 172.220,1.562 171.506,1.463 171.126 C 1.364 170.747,1.286 171.151,1.291 172.024 M304.862 173.611 C 304.866 174.484,304.948 174.795,305.043 174.301 C 305.137 173.807,305.134 173.093,305.035 172.714 C 304.935 172.334,304.858 172.738,304.862 173.611 M241.713 177.051 C 241.687 177.415,241.564 178.040,241.438 178.440 C 241.222 179.129,241.234 179.130,241.663 178.460 C 241.913 178.071,242.036 177.446,241.938 177.071 C 241.776 176.456,241.754 176.454,241.713 177.051 M301.041 192.277 C 300.905 192.632,300.809 193.220,300.828 193.584 C 300.847 193.948,301.019 193.719,301.211 193.076 C 301.586 191.823,301.453 191.203,301.041 192.277 M229.036 204.529 C 228.344 205.492,227.778 206.412,227.778 206.573 C 227.778 206.836,229.555 204.515,230.303 203.274 C 231.002 202.115,230.195 202.915,229.036 204.529 M296.076 207.981 C 295.831 208.682,295.701 209.325,295.786 209.410 C 295.871 209.495,296.140 208.991,296.384 208.289 C 296.629 207.588,296.760 206.945,296.675 206.860 C 296.590 206.775,296.320 207.279,296.076 207.981 M221.804 213.790 L 220.437 215.278 221.925 213.910 C 223.310 212.637,223.595 212.302,223.292 212.302 C 223.226 212.302,222.556 212.971,221.804 213.790 M86.491 215.972 C 87.464 217.009,88.313 217.857,88.376 217.857 C 88.674 217.857,88.359 217.501,86.607 215.856 L 84.722 214.087 86.491 215.972 M217.836 218.155 L 216.468 219.643 217.956 218.275 C 219.341 217.002,219.627 216.667,219.324 216.667 C 219.258 216.667,218.588 217.336,217.836 218.155 M90.278 219.841 C 91.130 220.714,91.917 221.429,92.026 221.429 C 92.135 221.429,91.527 220.714,90.675 219.841 C 89.822 218.968,89.035 218.254,88.926 218.254 C 88.817 218.254,89.425 218.968,90.278 219.841 M213.471 222.123 L 212.103 223.611 213.591 222.244 C 214.976 220.971,215.262 220.635,214.959 220.635 C 214.892 220.635,214.223 221.305,213.471 222.123 M92.857 221.950 C 92.857 222.018,93.438 222.598,94.147 223.239 L 95.437 224.405 94.271 223.115 C 93.185 221.913,92.857 221.643,92.857 221.950 M96.032 224.727 C 96.032 224.826,96.687 225.406,97.489 226.017 C 98.290 226.628,98.820 226.925,98.667 226.678 C 98.353 226.170,96.032 224.452,96.032 224.727 M204.807 228.790 C 203.850 229.543,203.225 230.156,203.418 230.153 C 203.612 230.150,204.484 229.531,205.357 228.779 C 207.405 227.014,207.057 227.021,204.807 228.790 M283.730 233.573 C 283.730 233.777,285.471 235.637,287.599 237.706 L 291.468 241.468 287.698 237.512 C 285.625 235.337,283.884 233.477,283.829 233.379 C 283.775 233.281,283.730 233.368,283.730 233.573 M27.778 241.443 C 27.778 241.863,30.884 246.032,31.197 246.032 C 31.317 246.032,30.897 245.362,30.262 244.544 C 29.627 243.725,28.808 242.614,28.443 242.074 C 28.077 241.535,27.778 241.251,27.778 241.443 M177.183 241.667 C 176.682 241.882,176.609 242.008,176.984 242.008 C 177.312 242.008,177.937 241.854,178.373 241.667 C 178.873 241.452,178.947 241.326,178.571 241.326 C 178.244 241.326,177.619 241.479,177.183 241.667 M173.810 242.460 C 172.992 242.722,172.957 242.784,173.611 242.812 C 174.048 242.830,174.673 242.672,175.000 242.460 C 175.695 242.011,175.213 242.011,173.810 242.460 M143.953 244.725 C 144.447 244.820,145.161 244.816,145.540 244.717 C 145.920 244.618,145.516 244.540,144.643 244.545 C 143.770 244.549,143.459 244.630,143.953 244.725 M161.012 244.724 C 161.503 244.819,162.307 244.819,162.798 244.724 C 163.289 244.630,162.887 244.553,161.905 244.553 C 160.923 244.553,160.521 244.630,161.012 244.724 M151.885 245.128 C 152.594 245.216,153.755 245.216,154.464 245.128 C 155.174 245.040,154.593 244.968,153.175 244.968 C 151.756 244.968,151.176 245.040,151.885 245.128 M295.238 244.950 C 295.238 245.010,296.622 246.394,298.313 248.026 L 301.389 250.992 298.423 247.917 C 295.668 245.060,295.238 244.660,295.238 244.950 M40.063 256.845 C 41.707 258.597,42.063 258.912,42.063 258.614 C 42.063 258.551,41.215 257.702,40.179 256.729 L 38.294 254.960 40.063 256.845 M312.691 262.004 C 316.555 265.966,317.063 266.450,317.063 266.164 C 317.063 266.105,315.144 264.185,312.798 261.898 L 308.532 257.738 312.691 262.004 M47.817 264.683 C 48.670 265.556,49.457 266.270,49.566 266.270 C 49.675 266.270,49.067 265.556,48.214 264.683 C 47.362 263.810,46.575 263.095,46.466 263.095 C 46.357 263.095,46.965 263.810,47.817 264.683 M323.611 272.619 C 325.785 274.802,327.654 276.587,327.763 276.587 C 327.872 276.587,326.182 274.802,324.008 272.619 C 321.834 270.437,319.965 268.651,319.856 268.651 C 319.747 268.651,321.437 270.437,323.611 272.619 M336.905 285.516 C 338.970 287.589,340.748 289.286,340.857 289.286 C 340.966 289.286,339.366 287.589,337.302 285.516 C 335.237 283.442,333.458 281.746,333.349 281.746 C 333.240 281.746,334.840 283.442,336.905 285.516 M230.815 285.218 C 230.714 285.382,231.133 285.516,231.746 285.516 C 232.359 285.516,232.778 285.382,232.677 285.218 C 232.576 285.055,232.157 284.921,231.746 284.921 C 231.335 284.921,230.916 285.055,230.815 285.218 M239.675 292.163 C 243.539 296.125,244.048 296.609,244.048 296.322 C 244.048 296.264,242.128 294.344,239.782 292.056 L 235.516 287.897 239.675 292.163 M350.595 298.810 C 352.550 300.774,354.239 302.381,354.349 302.381 C 354.458 302.381,352.947 300.774,350.992 298.810 C 349.037 296.845,347.348 295.238,347.239 295.238 C 347.130 295.238,348.640 296.845,350.595 298.810 M119.643 302.778 C 120.079 302.965,120.704 303.119,121.032 303.119 C 121.407 303.119,121.334 302.993,120.833 302.778 C 120.397 302.590,119.772 302.437,119.444 302.437 C 119.069 302.437,119.143 302.563,119.643 302.778 M124.636 303.717 C 124.727 303.797,125.516 303.972,126.389 304.105 C 127.495 304.273,127.736 304.237,127.183 303.987 C 126.421 303.642,124.295 303.417,124.636 303.717 M179.167 303.987 C 178.614 304.237,178.854 304.273,179.960 304.105 C 180.833 303.972,181.622 303.797,181.713 303.717 C 182.054 303.417,179.928 303.642,179.167 303.987 M139.590 305.843 C 140.304 305.931,141.375 305.930,141.971 305.839 C 142.568 305.749,141.984 305.676,140.675 305.679 C 139.365 305.681,138.877 305.755,139.590 305.843 M164.787 305.840 C 165.390 305.932,166.283 305.929,166.771 305.835 C 167.259 305.741,166.766 305.666,165.675 305.669 C 164.583 305.672,164.184 305.749,164.787 305.840 M358.333 306.062 C 358.333 306.122,359.717 307.505,361.409 309.137 L 364.484 312.103 361.518 309.028 C 358.763 306.171,358.333 305.771,358.333 306.062 M254.365 306.458 C 254.365 306.518,255.749 307.902,257.440 309.534 L 260.516 312.500 257.550 309.425 C 254.795 306.568,254.365 306.168,254.365 306.458 M267.659 319.444 C 269.614 321.409,271.303 323.016,271.412 323.016 C 271.521 323.016,270.011 321.409,268.056 319.444 C 266.100 317.480,264.411 315.873,264.302 315.873 C 264.193 315.873,265.704 317.480,267.659 319.444 M377.381 324.802 C 379.446 326.875,381.224 328.571,381.334 328.571 C 381.443 328.571,379.843 326.875,377.778 324.802 C 375.713 322.728,373.934 321.032,373.825 321.032 C 373.716 321.032,375.316 322.728,377.381 324.802 M284.524 335.913 C 286.589 337.986,288.367 339.683,288.476 339.683 C 288.586 339.683,286.985 337.986,284.921 335.913 C 282.856 333.839,281.077 332.143,280.968 332.143 C 280.859 332.143,282.459 333.839,284.524 335.913 M387.285 334.226 C 388.258 335.263,389.106 336.111,389.170 336.111 C 389.468 336.111,389.153 335.755,387.401 334.110 L 385.516 332.341 387.285 334.226 M298.611 349.603 C 300.785 351.786,302.654 353.571,302.763 353.571 C 302.872 353.571,301.182 351.786,299.008 349.603 C 296.834 347.421,294.965 345.635,294.856 345.635 C 294.747 345.635,296.437 347.421,298.611 349.603 M311.310 361.905 C 313.703 364.306,315.750 366.270,315.859 366.270 C 315.969 366.270,314.100 364.306,311.706 361.905 C 309.313 359.504,307.266 357.540,307.156 357.540 C 307.047 357.540,308.916 359.504,311.310 361.905 M398.532 360.714 C 398.532 361.915,398.606 362.406,398.697 361.806 C 398.788 361.205,398.788 360.223,398.697 359.623 C 398.606 359.023,398.532 359.514,398.532 360.714 M397.449 368.481 C 397.303 369.062,397.260 369.615,397.354 369.708 C 397.447 369.802,397.643 369.402,397.789 368.821 C 397.935 368.239,397.978 367.687,397.884 367.593 C 397.791 367.500,397.595 367.899,397.449 368.481 M327.579 377.778 C 329.535 379.742,331.224 381.349,331.333 381.349 C 331.442 381.349,329.931 379.742,327.976 377.778 C 326.021 375.813,324.332 374.206,324.223 374.206 C 324.114 374.206,325.624 375.813,327.579 377.778 M392.612 380.258 C 391.246 382.575,391.157 382.773,391.852 381.944 C 392.658 380.984,393.353 379.762,393.093 379.762 C 392.989 379.762,392.772 379.985,392.612 380.258 M337.103 386.905 C 338.178 387.996,339.147 388.889,339.256 388.889 C 339.365 388.889,338.575 387.996,337.500 386.905 C 336.425 385.813,335.456 384.921,335.347 384.921 C 335.238 384.921,336.028 385.813,337.103 386.905 " stroke="none" fill="#949494" fill-rule="evenodd"></path><path id="path4" d="" stroke="none" fill="#9c9494" fill-rule="evenodd"></path><path id="path5" d="M61.600 153.175 C 61.600 153.938,61.682 154.251,61.781 153.869 C 61.881 153.487,61.881 152.862,61.781 152.480 C 61.682 152.098,61.600 152.411,61.600 153.175 M244.933 153.175 C 244.933 153.938,245.015 154.251,245.115 153.869 C 245.215 153.487,245.215 152.862,245.115 152.480 C 245.015 152.098,244.933 152.411,244.933 153.175 M304.762 254.092 C 304.762 254.161,305.342 254.741,306.052 255.382 L 307.341 256.548 306.176 255.258 C 305.089 254.056,304.762 253.786,304.762 254.092 M355.952 303.696 C 355.952 303.764,356.533 304.344,357.242 304.985 L 358.532 306.151 357.366 304.861 C 356.280 303.659,355.952 303.389,355.952 303.696 M368.651 315.997 C 368.651 316.065,369.231 316.646,369.940 317.287 L 371.230 318.452 370.065 317.163 C 368.978 315.961,368.651 315.691,368.651 315.997 M381.349 328.373 C 382.090 329.137,382.785 329.762,382.894 329.762 C 383.003 329.762,382.486 329.137,381.746 328.373 C 381.006 327.609,380.311 326.984,380.201 326.984 C 380.092 326.984,380.609 327.609,381.349 328.373 " stroke="none" fill="#9e9c9c" fill-rule="evenodd"></path></g></svg>