<svg id="svg" version="1.1" xmlns="http://www.w3.org/2000/svg" xmlns:xlink="http://www.w3.org/1999/xlink" width="80" height="80" viewBox="0, 0, 400,398.0295566502463"><g id="svgg"><path id="path0" d="M261.281 1.759 C 261.281 2.293,261.977 6.150,262.828 10.330 C 264.995 20.979,267.779 35.414,268.967 42.167 C 271.212 54.933,272.191 55.945,286.108 59.902 C 300.587 64.018,347.281 79.699,378.645 90.978 C 383.687 92.791,384.788 92.787,386.625 90.950 C 387.969 89.606,388.220 87.104,387.162 85.594 C 385.502 83.224,358.744 71.739,333.005 62.349 C 322.618 58.560,316.966 56.808,292.020 49.641 C 285.842 47.866,280.574 46.212,280.313 45.966 C 279.829 45.509,278.259 41.322,271.725 23.054 C 267.461 11.134,267.757 11.847,264.485 5.616 C 261.934 0.757,261.281 -0.029,261.281 1.759 M231.133 7.075 C 221.063 9.756,190.954 18.312,155.287 28.627 C 148.902 30.474,143.200 32.325,142.616 32.741 C 139.969 34.626,119.814 73.629,120.486 75.567 C 120.996 77.037,122.285 75.650,127.628 67.882 C 149.423 36.193,146.557 39.730,151.330 38.625 C 153.389 38.148,158.709 36.901,163.153 35.854 C 167.596 34.807,177.350 32.515,184.828 30.760 C 198.068 27.653,205.956 25.329,238.018 15.092 C 248.420 11.771,250.131 10.273,248.072 6.293 C 246.496 3.245,245.314 3.299,231.133 7.075 M117.833 83.461 C 113.185 84.971,98.963 91.494,91.034 95.752 C 63.788 110.384,50.415 119.193,22.463 140.922 C 8.723 151.602,6.586 153.380,5.923 154.680 C 5.592 155.330,5.187 155.921,5.025 155.993 C 3.821 156.528,6.135 161.645,8.206 163.027 C 10.837 164.783,11.752 164.676,25.222 161.041 C 84.456 145.057,84.723 144.992,125.517 136.548 C 132.236 135.157,140.305 133.477,143.448 132.814 C 146.591 132.151,151.961 131.082,155.381 130.439 L 161.600 129.270 163.951 127.314 C 170.482 121.879,184.288 115.654,189.196 115.931 C 193.083 116.151,196.214 119.051,196.248 122.463 C 196.258 123.522,196.592 123.547,200.591 122.790 C 204.236 122.099,227.617 119.021,239.606 117.654 C 258.303 115.522,293.571 112.391,325.911 109.991 C 338.846 109.031,341.420 108.737,343.362 107.995 C 353.165 104.255,353.972 93.381,344.704 89.914 C 339.187 87.849,339.368 87.839,306.207 92.218 C 297.862 93.320,287.665 94.662,283.547 95.201 C 269.168 97.083,219.634 103.677,211.034 104.855 C 188.990 107.874,158.672 114.037,111.133 125.164 C 89.259 130.284,76.934 133.499,59.802 138.552 C 32.204 146.691,31.341 146.940,31.198 146.798 C 31.029 146.628,37.445 141.696,45.065 136.139 C 70.127 117.863,75.930 114.012,107.980 94.388 C 119.815 87.142,120.591 86.583,120.591 85.300 C 120.591 84.049,119.094 83.051,117.833 83.461 M374.591 148.961 C 373.177 149.681,372.764 149.709,369.394 149.312 C 347.204 146.695,313.909 170.123,313.364 188.738 C 312.794 208.183,333.437 208.365,359.232 189.143 L 360.828 187.953 362.436 189.482 C 367.085 193.905,375.073 194.891,383.407 192.073 C 395.994 187.816,397.935 183.452,387.980 181.791 C 381.008 180.627,380.289 180.436,379.095 179.432 C 376.005 176.831,376.065 174.590,379.525 163.547 C 382.513 154.010,382.619 151.741,380.181 149.506 C 378.466 147.934,376.903 147.782,374.591 148.961 M291.232 148.881 C 290.256 148.944,285.113 149.604,279.803 150.348 C 261.143 152.965,254.101 153.730,252.613 153.302 C 243.670 150.731,240.624 161.605,248.862 166.696 C 251.355 168.237,259.065 168.169,275.576 166.461 C 278.778 166.130,281.755 165.915,282.191 165.984 C 282.769 166.074,278.235 169.971,265.537 180.296 C 242.789 198.793,242.001 199.555,238.902 206.035 C 235.188 213.802,237.343 216.471,245.911 214.717 C 250.472 213.784,254.690 213.685,276.453 214.006 C 290.514 214.213,295.558 213.491,302.977 210.210 C 312.767 205.880,315.820 198.801,307.312 200.158 C 301.499 201.085,297.018 201.101,290.443 200.217 C 287.084 199.765,281.675 199.113,278.424 198.769 C 275.172 198.424,272.261 198.067,271.954 197.975 C 271.608 197.870,277.305 191.860,286.951 182.155 C 304.602 164.395,306.568 161.893,306.665 157.072 C 306.765 152.069,299.737 148.339,291.232 148.881 M362.956 162.154 C 362.956 162.256,361.973 164.592,360.771 167.347 C 359.570 170.102,358.480 173.134,358.350 174.084 C 358.075 176.091,357.673 176.374,348.966 180.706 C 341.917 184.212,334.187 185.817,334.187 183.773 C 334.187 181.089,339.356 173.854,343.705 170.451 C 348.491 166.706,362.956 160.472,362.956 162.154 M218.769 166.353 C 214.136 166.528,207.663 166.986,204.385 167.372 C 200.484 167.830,195.563 168.074,190.148 168.076 C 179.809 168.080,178.128 168.902,178.128 173.957 C 178.128 181.210,189.905 183.321,211.191 179.882 C 214.529 179.343,217.322 178.964,217.398 179.040 C 217.475 179.117,213.503 182.530,208.572 186.625 C 171.600 217.327,163.589 225.811,163.566 234.286 C 163.547 241.333,169.358 243.562,178.392 239.973 C 181.311 238.814,186.185 237.821,194.089 236.777 C 197.067 236.383,205.778 236.253,229.754 236.243 C 261.257 236.229,261.507 236.223,265.616 235.332 C 276.669 232.937,286.897 227.728,286.897 224.495 C 286.897 222.320,284.540 221.284,281.898 222.297 C 272.072 226.062,260.893 226.104,238.227 222.460 C 222.489 219.930,208.785 219.538,199.063 221.338 C 197.024 221.715,197.132 221.598,210.443 208.980 C 234.639 186.045,242.971 173.758,237.964 168.397 C 235.733 166.009,233.687 165.791,218.769 166.353 M161.779 170.474 C 161.261 171.033,160.720 172.022,160.578 172.672 C 160.435 173.321,158.272 176.632,155.770 180.030 C 136.107 206.733,131.053 221.532,137.403 233.817 C 140.798 240.383,150.480 241.366,149.615 235.055 C 149.246 232.362,153.514 221.710,158.968 211.711 C 167.468 196.129,171.111 180.825,168.275 172.611 C 167.193 169.480,163.751 168.347,161.779 170.474 M79.212 172.068 C 57.538 174.757,42.527 185.375,46.872 194.944 C 48.236 197.948,51.669 198.216,58.853 195.881 C 63.452 194.386,63.502 194.404,61.541 196.886 C 44.183 218.863,28.556 256.164,19.043 298.325 C 15.570 313.717,18.864 325.045,25.849 321.730 C 30.012 319.754,31.578 316.927,40.782 294.778 C 66.334 233.292,77.213 200.656,74.313 194.187 C 73.932 193.336,76.248 193.257,81.773 193.934 C 114.322 197.923,113.188 227.134,79.854 243.351 C 75.664 245.390,74.042 245.982,67.415 247.892 C 57.757 250.676,61.662 255.365,72.652 254.181 C 106.440 250.543,132.835 222.658,125.784 198.052 C 120.789 180.623,100.683 169.405,79.212 172.068 M309.289 228.091 C 307.474 229.288,302.496 236.396,294.806 248.775 C 291.352 254.333,292.569 253.565,285.340 254.750 C 279.691 255.675,279.162 255.701,276.620 255.166 C 267.772 253.305,262.764 261.955,270.651 265.476 C 273.133 266.583,278.538 267.586,282.022 267.586 C 285.075 267.586,285.119 266.616,281.592 277.139 C 276.185 293.272,275.316 298.480,275.530 313.498 C 275.691 324.804,276.581 327.396,280.007 326.536 C 281.864 326.070,282.431 324.873,286.294 313.264 C 290.076 301.899,293.902 291.132,300.408 273.549 L 303.670 264.734 308.978 262.865 C 318.315 259.576,348.380 247.907,351.243 246.461 C 353.030 245.557,354.286 244.323,354.286 243.470 C 354.286 241.738,353.099 241.818,338.518 244.540 C 330.826 245.976,321.429 247.730,317.635 248.438 C 313.842 249.146,310.687 249.599,310.624 249.445 C 310.561 249.290,311.921 246.313,313.647 242.830 C 317.262 235.533,317.830 233.188,316.594 230.667 C 315.172 227.766,311.660 226.527,309.289 228.091 M181.700 247.783 C 175.874 253.842,170.575 264.771,164.464 283.330 C 162.861 288.196,161.492 292.235,161.421 292.307 C 161.169 292.558,132.214 298.634,131.969 298.487 C 131.833 298.405,132.415 296.517,133.264 294.292 C 145.223 262.914,147.696 243.001,138.835 249.419 C 133.059 253.604,121.645 272.709,110.912 296.158 C 109.027 300.276,107.453 303.686,107.413 303.735 C 107.374 303.784,104.047 304.271,100.020 304.817 C 84.376 306.938,82.759 307.655,82.759 312.473 C 82.759 317.739,85.503 319.516,96.552 321.403 C 98.611 321.755,100.329 322.075,100.369 322.113 C 100.410 322.152,99.822 324.308,99.063 326.905 C 90.932 354.724,92.096 368.520,102.495 367.577 C 111.689 366.743,114.031 362.271,122.351 329.655 C 124.898 319.671,125.058 319.212,126.011 319.212 C 127.016 319.212,138.785 315.095,147.389 311.735 C 156.316 308.248,156.059 308.327,156.059 309.093 C 156.059 309.430,155.528 311.882,154.878 314.541 C 152.173 325.619,151.797 334.034,153.827 338.015 C 157.872 345.944,167.797 341.814,171.650 330.599 C 173.586 324.961,178.929 304.831,180.702 296.491 C 180.825 295.913,182.781 294.412,186.810 291.802 C 194.522 286.806,196.014 285.031,193.748 283.546 C 192.877 282.975,192.541 283.037,188.527 284.518 C 183.348 286.427,183.119 286.450,183.410 285.025 C 183.531 284.429,184.352 279.685,185.233 274.483 C 186.115 269.281,187.359 261.968,187.999 258.231 C 189.609 248.830,189.536 247.552,187.317 246.370 C 185.380 245.338,183.627 245.779,181.700 247.783 M256.145 262.046 C 253.505 262.848,251.150 265.938,246.667 274.483 C 242.576 282.282,236.242 288.043,219.256 299.414 C 213.855 303.030,213.766 303.041,214.823 299.967 C 220.974 282.091,215.860 268.991,202.759 269.060 C 195.396 269.098,191.568 272.206,195.784 274.722 C 201.811 278.319,202.037 279.869,198.214 291.441 C 192.219 309.584,192.697 316.365,200.256 320.394 C 209.597 325.373,223.310 318.377,236.563 301.872 C 241.264 296.017,241.181 296.069,241.187 298.982 C 241.204 307.564,250.059 319.164,256.622 319.203 C 259.264 319.219,260.410 316.679,259.052 313.817 C 257.811 311.203,258.653 293.402,260.688 279.212 C 262.915 263.692,262.008 260.265,256.145 262.046 " stroke="none" fill="#060606" fill-rule="evenodd"></path><path id="path1" d="M249.261 4.003 C 248.611 4.220,247.857 4.467,247.585 4.551 C 247.223 4.664,247.302 5.052,247.879 5.998 C 250.362 10.071,248.573 11.722,238.018 15.092 C 205.956 25.329,198.068 27.653,184.828 30.760 C 177.350 32.515,167.596 34.807,163.153 35.854 C 158.709 36.901,153.389 38.148,151.330 38.624 C 146.779 39.676,147.657 38.790,139.825 50.246 C 134.674 57.783,132.534 61.346,129.292 67.783 C 122.661 80.948,121.822 82.389,120.518 82.843 C 119.463 83.211,119.419 83.299,119.980 83.919 C 121.747 85.871,121.407 86.167,107.980 94.388 C 75.930 114.012,70.127 117.863,45.065 136.139 C 37.445 141.696,31.029 146.628,31.198 146.798 C 31.341 146.940,32.204 146.691,59.802 138.552 C 76.934 133.499,89.259 130.284,111.133 125.164 C 158.672 114.037,188.990 107.874,211.034 104.855 C 219.634 103.677,269.168 97.083,283.547 95.201 C 287.665 94.662,297.862 93.320,306.207 92.218 C 339.368 87.839,339.187 87.849,344.704 89.914 C 352.806 92.945,353.471 102.450,345.887 106.801 C 343.453 108.196,343.744 108.236,350.036 107.364 C 356.640 106.449,366.063 104.483,368.057 103.605 C 374.489 100.772,375.985 95.455,371.294 92.100 C 361.164 84.857,361.502 85.053,355.315 82.838 C 332.892 74.810,298.772 63.502,286.108 59.902 C 272.178 55.942,271.216 54.946,268.972 42.167 C 268.383 38.808,267.141 32.220,266.215 27.527 L 264.529 18.995 262.025 15.705 C 258.624 11.235,252.704 4.413,251.813 3.936 C 250.961 3.480,250.820 3.484,249.261 4.003 " stroke="none" fill="#ea1c23" fill-rule="evenodd"></path><path id="path2" d="M0.000 199.015 L 0.000 398.030 64.926 398.017 C 127.813 398.004,129.788 397.982,127.811 397.299 C 121.291 395.045,118.713 388.756,122.115 383.401 C 123.725 380.867,125.606 379.773,133.851 376.573 C 140.587 373.959,156.385 367.297,163.350 364.132 C 164.867 363.443,171.251 360.842,177.537 358.353 C 236.640 334.946,239.805 333.731,251.626 329.898 C 258.345 327.720,266.414 325.197,269.557 324.293 L 275.271 322.648 275.293 311.570 C 275.323 296.602,278.205 282.896,284.301 268.725 C 284.537 268.178,284.056 268.053,280.767 267.812 C 276.695 267.513,271.972 266.464,269.920 265.403 C 265.476 263.105,265.703 257.836,270.348 255.442 C 272.179 254.499,272.519 254.489,278.288 255.213 C 280.051 255.434,289.253 254.141,291.052 253.419 C 291.495 253.241,293.344 250.726,295.160 247.829 C 307.364 228.364,309.568 225.955,313.632 227.640 C 318.608 229.702,318.573 233.321,313.475 243.643 C 312.004 246.623,310.882 249.142,310.982 249.241 C 311.082 249.341,320.112 247.747,331.050 245.698 C 352.134 241.749,353.091 241.620,354.061 242.590 C 355.344 243.873,354.147 245.268,350.186 247.103 C 343.938 249.999,306.175 264.433,304.848 264.433 C 304.062 264.433,303.871 264.840,300.860 272.954 C 299.422 276.829,297.092 283.103,295.683 286.897 C 291.590 297.917,284.135 320.000,284.508 320.000 C 284.696 320.000,287.571 319.296,290.898 318.437 C 308.809 313.807,321.081 311.606,340.296 309.578 C 365.177 306.953,365.805 306.935,366.526 308.832 C 367.439 311.232,366.848 311.604,357.833 314.306 C 323.496 324.599,284.086 338.340,249.591 352.048 C 232.978 358.650,226.324 361.490,182.463 380.692 C 150.828 394.541,145.770 396.599,140.493 397.764 C 140.059 397.860,198.271 397.959,269.852 397.984 L 400.000 398.030 400.000 199.015 L 400.000 0.000 200.000 0.000 L 0.000 0.000 0.000 199.015 M264.951 6.109 C 267.109 10.148,268.935 14.690,273.590 27.586 C 276.836 36.581,279.659 44.402,279.862 44.966 C 280.194 45.883,280.837 46.164,286.028 47.659 C 289.215 48.577,293.507 49.828,295.567 50.439 C 297.626 51.050,301.882 52.296,305.025 53.209 C 321.858 58.097,328.281 60.236,343.384 65.983 C 369.717 76.003,386.365 83.591,387.566 86.121 C 389.308 89.793,385.505 93.732,381.602 92.298 C 374.910 89.841,362.684 85.521,362.420 85.519 C 362.044 85.517,365.058 87.768,369.811 91.041 C 376.040 95.329,375.333 100.401,368.057 103.605 C 365.909 104.551,356.210 106.532,349.557 107.384 C 346.847 107.730,343.655 108.264,342.463 108.569 C 339.815 109.247,339.016 109.324,321.773 110.563 C 271.231 114.194,212.975 120.287,197.340 123.578 C 196.587 123.737,196.255 123.646,196.254 123.283 C 196.239 119.621,192.536 115.896,188.887 115.871 C 184.286 115.839,169.592 122.822,163.404 127.980 C 161.689 129.410,161.086 129.649,157.689 130.250 C 150.702 131.486,105.802 140.833,90.246 144.290 C 80.199 146.522,76.712 147.432,29.518 160.129 C 15.610 163.870,12.466 164.596,11.193 164.359 C 5.867 163.370,3.130 157.991,6.019 154.190 C 8.130 151.414,37.747 128.615,52.655 118.290 C 71.796 105.033,111.595 84.000,119.365 83.034 C 120.316 82.916,121.326 82.584,121.609 82.296 C 122.209 81.688,132.477 61.804,132.289 61.615 C 132.219 61.546,129.880 64.856,127.090 68.971 C 122.068 76.378,121.590 76.900,120.670 75.980 C 119.681 74.992,122.326 69.005,131.517 51.429 C 142.018 31.346,140.941 32.570,150.542 29.804 C 153.901 28.836,162.502 26.357,169.655 24.295 C 234.641 5.563,243.535 3.202,245.695 4.105 C 246.927 4.619,247.321 4.619,249.061 4.102 C 250.471 3.683,251.245 3.632,251.785 3.921 C 252.682 4.401,258.837 11.467,261.757 15.369 C 262.893 16.886,263.927 18.128,264.055 18.128 C 264.183 18.128,263.635 14.980,262.836 11.133 C 260.673 0.722,260.669 0.688,261.509 0.850 C 261.951 0.935,263.234 2.895,264.951 6.109 M190.120 121.605 C 191.744 123.229,190.976 125.097,184.943 134.201 C 172.435 153.078,168.610 157.226,163.704 157.238 C 153.292 157.262,154.061 144.404,165.118 133.596 C 171.556 127.303,187.953 119.438,190.120 121.605 M379.840 148.828 C 382.819 150.756,382.798 153.590,379.733 163.531 C 377.006 172.377,376.535 174.883,377.268 176.636 C 378.127 178.693,380.346 180.398,382.545 180.691 C 392.482 182.015,394.089 182.614,394.089 184.996 C 394.089 187.968,389.026 190.973,380.099 193.302 C 373.969 194.900,364.585 192.845,361.790 189.291 C 360.852 188.099,361.300 187.917,356.191 191.558 C 349.576 196.273,345.707 198.491,341.007 200.262 C 322.643 207.182,311.810 202.342,313.042 187.766 C 314.164 174.490,333.735 156.678,353.892 150.586 C 358.583 149.169,367.827 148.515,371.415 149.347 C 372.455 149.588,373.146 149.569,373.480 149.292 C 375.228 147.842,378.003 147.640,379.840 148.828 M297.840 149.166 C 304.881 150.826,307.983 154.474,306.588 159.456 C 305.512 163.299,302.834 166.450,287.167 182.315 L 271.940 197.732 276.364 198.206 C 278.797 198.467,282.473 198.924,284.532 199.222 C 295.668 200.837,300.442 201.005,306.380 199.994 C 317.958 198.022,312.411 207.437,299.427 211.796 C 291.916 214.317,284.747 214.816,264.433 214.231 C 252.474 213.887,252.384 213.890,246.423 214.920 C 238.343 216.317,236.965 215.710,237.313 210.908 C 237.842 203.591,240.992 200.092,263.778 181.508 C 274.113 173.078,282.506 166.119,282.429 166.042 C 282.353 165.965,280.977 166.079,279.371 166.296 C 266.581 168.019,251.958 168.399,249.230 167.078 C 240.734 162.966,242.856 151.214,251.790 152.900 C 254.832 153.474,260.297 152.922,280.788 149.971 C 291.078 148.490,294.323 148.336,297.840 149.166 M357.185 163.702 C 346.217 167.301,338.552 173.632,335.021 182.009 C 333.903 184.659,333.886 184.647,338.028 184.129 C 342.814 183.529,344.800 182.797,351.659 179.105 L 357.634 175.890 358.256 173.561 C 358.599 172.280,359.708 169.308,360.720 166.956 C 361.733 164.605,362.562 162.610,362.562 162.523 C 362.562 162.122,360.868 162.494,357.185 163.702 M236.042 166.691 C 239.987 168.704,240.675 173.453,237.736 178.400 C 233.027 186.325,224.393 196.082,210.358 209.335 C 203.678 215.644,198.280 220.875,198.365 220.959 C 198.449 221.043,200.181 220.886,202.215 220.610 C 207.646 219.871,224.158 219.992,229.163 220.807 C 261.739 226.113,266.670 226.266,280.519 222.401 C 287.252 220.521,289.816 224.406,284.333 228.179 C 272.984 235.987,265.224 237.103,227.783 236.314 C 201.241 235.754,186.708 237.026,176.749 240.783 C 165.645 244.972,159.834 237.444,165.651 226.404 C 168.396 221.193,185.082 205.692,210.360 184.870 C 217.353 179.109,217.431 179.000,214.101 179.643 C 189.549 184.389,173.952 180.673,178.550 171.174 C 180.099 167.975,181.119 167.664,189.563 167.818 C 194.655 167.911,198.407 167.758,201.977 167.313 C 214.061 165.805,233.607 165.448,236.042 166.691 M167.359 170.499 C 169.805 173.540,170.016 182.689,167.833 191.029 C 166.377 196.590,164.337 201.453,158.862 212.414 C 152.018 226.115,149.754 231.677,149.754 234.791 C 149.754 240.923,142.386 241.371,138.337 235.485 C 129.994 223.359,135.451 206.669,157.210 177.758 C 158.750 175.711,160.183 173.394,160.395 172.609 C 161.313 169.197,165.333 167.979,167.359 170.499 M90.708 171.828 C 115.403 174.170,131.032 192.936,126.151 214.384 C 121.833 233.360,99.034 250.969,74.568 254.224 C 60.437 256.105,56.700 250.444,69.779 246.970 C 79.749 244.322,90.482 237.908,97.786 230.232 C 113.827 213.376,102.859 193.907,77.313 193.893 C 74.500 193.892,74.437 193.913,74.716 194.778 C 77.072 202.064,65.758 235.299,39.130 299.310 C 30.999 318.856,28.590 322.362,23.239 322.436 C 17.932 322.509,15.918 312.810,18.561 299.901 C 26.480 261.219,42.302 222.516,59.885 198.813 C 61.410 196.757,62.544 195.074,62.404 195.074 C 62.265 195.074,60.536 195.589,58.563 196.219 C 49.489 199.116,46.030 197.816,46.030 191.513 C 46.030 180.222,69.620 169.828,90.708 171.828 M187.843 246.505 C 190.123 247.999,190.188 247.188,185.759 272.665 C 184.576 279.468,183.661 285.249,183.725 285.513 C 183.806 285.843,185.180 285.499,188.123 284.413 C 193.103 282.577,194.394 282.651,194.603 284.788 C 194.777 286.572,193.725 287.567,187.047 291.933 L 181.188 295.764 177.916 308.768 C 172.259 331.245,170.755 335.295,166.654 339.092 C 162.963 342.509,159.253 343.279,156.284 341.245 C 151.433 337.921,151.027 330.166,154.841 313.695 C 155.468 310.985,155.955 308.743,155.922 308.711 C 155.889 308.679,151.783 310.235,146.798 312.168 C 141.813 314.102,134.907 316.643,131.451 317.816 L 125.168 319.949 123.465 326.378 C 117.297 349.662,115.079 357.142,113.403 360.303 C 109.472 367.718,99.532 370.223,95.840 364.729 C 91.916 358.889,92.974 346.289,99.099 325.940 C 100.334 321.838,100.338 321.970,98.959 321.970 C 97.421 321.970,90.351 320.535,88.267 319.800 C 81.756 317.502,80.167 310.119,85.589 307.353 C 86.983 306.641,96.750 304.900,104.579 303.968 L 107.286 303.645 109.052 299.704 C 120.281 274.656,133.060 253.025,138.924 249.141 C 147.803 243.259,145.966 260.099,134.225 292.207 C 133.038 295.453,132.121 298.164,132.187 298.230 C 132.365 298.408,160.937 292.349,161.260 292.065 C 161.411 291.932,162.270 289.429,163.167 286.502 C 168.265 269.889,173.708 257.816,179.720 249.788 C 182.866 245.586,185.077 244.693,187.843 246.505 M260.785 263.071 L 262.181 264.467 261.949 269.475 C 261.822 272.229,261.272 277.232,260.728 280.591 C 258.941 291.613,258.221 311.072,259.468 314.654 C 260.849 318.623,257.851 320.674,253.596 318.670 C 247.352 315.730,242.168 308.167,241.040 300.349 L 240.563 297.045 238.832 299.360 C 223.730 319.561,207.482 327.156,197.307 318.769 C 192.571 314.866,192.715 307.660,197.840 292.020 C 201.774 280.016,201.701 278.754,196.895 275.717 C 192.507 272.943,193.203 270.361,198.654 269.192 C 206.677 267.472,212.465 270.095,215.875 276.996 L 217.340 279.962 217.337 285.301 C 217.335 290.873,216.863 294.104,215.325 299.098 C 214.826 300.715,214.470 302.089,214.532 302.151 C 214.756 302.375,227.819 293.318,232.556 289.655 C 239.744 284.097,243.389 280.316,245.478 276.256 C 252.666 262.282,256.604 258.890,260.785 263.071 " stroke="none" fill="#fbfbfb" fill-rule="evenodd"></path><path id="path3" d="M357.044 307.835 C 321.069 311.493,315.289 312.403,293.116 317.897 L 284.164 320.116 283.332 322.615 C 281.705 327.504,277.134 328.166,276.007 323.676 C 275.655 322.275,273.363 322.860,251.626 329.902 C 239.789 333.736,236.720 334.915,177.537 358.353 C 171.251 360.842,164.867 363.443,163.350 364.133 C 156.547 367.225,138.361 374.879,132.814 376.984 C 123.392 380.560,120.770 382.954,120.805 387.949 C 120.856 395.152,124.729 397.847,134.975 397.809 C 143.690 397.776,142.234 398.301,182.463 380.690 C 226.344 361.481,232.986 358.647,249.591 352.048 C 284.067 338.348,322.657 324.889,357.833 314.298 C 366.906 311.566,367.221 311.383,366.664 309.160 C 366.201 307.316,364.478 307.079,357.044 307.835 " stroke="none" fill="#fcc406" fill-rule="evenodd"></path><path id="path4" d="M127.488 59.113 C 126.724 60.631,126.187 61.872,126.296 61.872 C 126.404 61.872,127.118 60.631,127.882 59.113 C 128.646 57.596,129.182 56.355,129.074 56.355 C 128.966 56.355,128.252 57.596,127.488 59.113 M335.665 109.441 C 336.153 109.535,336.951 109.535,337.438 109.441 C 337.926 109.347,337.527 109.270,336.552 109.270 C 335.576 109.270,335.177 109.347,335.665 109.441 M330.148 109.835 C 330.635 109.929,331.433 109.929,331.921 109.835 C 332.409 109.741,332.010 109.664,331.034 109.664 C 330.059 109.664,329.660 109.741,330.148 109.835 M324.631 110.229 C 325.118 110.323,325.916 110.323,326.404 110.229 C 326.892 110.135,326.493 110.058,325.517 110.058 C 324.542 110.058,324.143 110.135,324.631 110.229 M319.113 110.623 C 319.601 110.717,320.399 110.717,320.887 110.623 C 321.374 110.529,320.975 110.452,320.000 110.452 C 319.025 110.452,318.626 110.529,319.113 110.623 M313.990 111.017 C 314.478 111.111,315.276 111.111,315.764 111.017 C 316.251 110.923,315.852 110.846,314.877 110.846 C 313.901 110.846,313.502 110.923,313.990 111.017 M308.867 111.411 C 309.355 111.505,310.153 111.505,310.640 111.411 C 311.128 111.317,310.729 111.240,309.754 111.240 C 308.778 111.240,308.379 111.317,308.867 111.411 M303.941 111.799 C 304.320 111.898,304.941 111.898,305.320 111.799 C 305.700 111.700,305.389 111.619,304.631 111.619 C 303.872 111.619,303.562 111.700,303.941 111.799 M299.212 112.193 C 299.591 112.292,300.212 112.292,300.591 112.193 C 300.970 112.094,300.660 112.013,299.901 112.013 C 299.143 112.013,298.833 112.094,299.212 112.193 M294.483 112.587 C 294.862 112.686,295.483 112.686,295.862 112.587 C 296.241 112.488,295.931 112.407,295.172 112.407 C 294.414 112.407,294.103 112.488,294.483 112.587 M289.955 112.988 C 290.446 113.082,291.155 113.079,291.532 112.980 C 291.908 112.881,291.507 112.804,290.640 112.809 C 289.773 112.813,289.465 112.894,289.955 112.988 M285.025 113.375 C 285.404 113.474,286.025 113.474,286.404 113.375 C 286.783 113.276,286.473 113.195,285.714 113.195 C 284.956 113.195,284.645 113.276,285.025 113.375 M280.497 113.776 C 280.987 113.871,281.697 113.867,282.074 113.768 C 282.450 113.670,282.049 113.593,281.182 113.597 C 280.315 113.601,280.007 113.682,280.497 113.776 M275.768 114.170 C 276.258 114.265,276.968 114.261,277.344 114.162 C 277.721 114.064,277.320 113.987,276.453 113.991 C 275.586 113.995,275.278 114.076,275.768 114.170 M271.626 114.557 C 272.005 114.656,272.626 114.656,273.005 114.557 C 273.384 114.458,273.074 114.377,272.315 114.377 C 271.557 114.377,271.246 114.458,271.626 114.557 M255.074 116.134 C 255.453 116.233,256.074 116.233,256.453 116.134 C 256.833 116.035,256.522 115.953,255.764 115.953 C 255.005 115.953,254.695 116.035,255.074 116.134 M251.133 116.528 C 251.512 116.627,252.133 116.627,252.512 116.528 C 252.892 116.429,252.581 116.348,251.823 116.348 C 251.064 116.348,250.754 116.429,251.133 116.528 M247.192 116.922 C 247.571 117.021,248.192 117.021,248.571 116.922 C 248.951 116.823,248.640 116.742,247.882 116.742 C 247.123 116.742,246.813 116.823,247.192 116.922 M229.852 118.892 C 230.232 118.991,230.852 118.991,231.232 118.892 C 231.611 118.793,231.300 118.712,230.542 118.712 C 229.783 118.712,229.473 118.793,229.852 118.892 M226.700 119.286 C 227.079 119.386,227.700 119.386,228.079 119.286 C 228.458 119.187,228.148 119.106,227.389 119.106 C 226.631 119.106,226.320 119.187,226.700 119.286 M185.476 121.976 C 166.242 128.820,153.413 142.698,156.809 152.987 C 158.623 158.484,166.362 158.633,171.190 153.264 C 174.895 149.142,188.819 129.042,190.196 125.825 C 191.979 121.662,190.271 120.270,185.476 121.976 M290.345 148.850 C 290.833 148.943,291.631 148.943,292.118 148.850 C 292.606 148.756,292.207 148.679,291.232 148.679 C 290.256 148.679,289.857 148.756,290.345 148.850 M293.896 148.850 C 294.386 148.944,295.096 148.941,295.473 148.842 C 295.849 148.744,295.448 148.666,294.581 148.671 C 293.714 148.675,293.406 148.756,293.896 148.850 M368.571 149.237 C 368.951 149.336,369.571 149.336,369.951 149.237 C 370.330 149.138,370.020 149.057,369.261 149.057 C 368.502 149.057,368.192 149.138,368.571 149.237 M248.970 152.791 C 249.460 152.885,250.170 152.882,250.546 152.783 C 250.923 152.684,250.522 152.607,249.655 152.612 C 248.788 152.616,248.480 152.697,248.970 152.791 M381.971 153.892 C 381.976 154.759,382.056 155.067,382.151 154.577 C 382.245 154.086,382.241 153.377,382.143 153.000 C 382.044 152.624,381.967 153.025,381.971 153.892 M245.517 164.064 C 245.517 164.132,246.094 164.708,246.798 165.345 L 248.079 166.502 246.921 165.222 C 245.842 164.028,245.517 163.760,245.517 164.064 M326.284 166.601 L 324.926 168.079 326.404 166.721 C 327.779 165.457,328.063 165.123,327.762 165.123 C 327.696 165.123,327.031 165.788,326.284 166.601 M220.803 166.203 C 222.057 166.281,224.008 166.281,225.138 166.201 C 226.268 166.122,225.241 166.058,222.857 166.059 C 220.473 166.060,219.548 166.125,220.803 166.203 M233.005 166.183 C 233.384 166.282,234.005 166.282,234.384 166.183 C 234.764 166.084,234.453 166.003,233.695 166.003 C 232.936 166.003,232.626 166.084,233.005 166.183 M211.928 166.591 C 212.637 166.679,213.701 166.677,214.293 166.587 C 214.885 166.497,214.305 166.425,213.005 166.428 C 211.704 166.430,211.220 166.503,211.928 166.591 M275.961 166.577 C 276.340 166.676,276.961 166.676,277.340 166.577 C 277.719 166.478,277.409 166.397,276.650 166.397 C 275.892 166.397,275.581 166.478,275.961 166.577 M206.010 166.978 C 206.498 167.072,207.296 167.072,207.783 166.978 C 208.271 166.884,207.872 166.807,206.897 166.807 C 205.921 166.807,205.522 166.884,206.010 166.978 M271.827 166.978 C 272.317 167.072,273.027 167.069,273.404 166.970 C 273.780 166.872,273.379 166.795,272.512 166.799 C 271.645 166.803,271.337 166.884,271.827 166.978 M202.266 167.365 C 202.645 167.464,203.266 167.464,203.645 167.365 C 204.025 167.266,203.714 167.185,202.956 167.185 C 202.197 167.185,201.887 167.266,202.266 167.365 M267.492 167.372 C 267.982 167.467,268.692 167.463,269.069 167.364 C 269.445 167.266,269.044 167.189,268.177 167.193 C 267.310 167.197,267.002 167.278,267.492 167.372 M183.551 167.766 C 184.042 167.861,184.751 167.857,185.128 167.758 C 185.505 167.660,185.103 167.583,184.236 167.587 C 183.369 167.591,183.061 167.672,183.551 167.766 M261.779 167.770 C 262.378 167.861,263.265 167.859,263.749 167.765 C 264.234 167.672,263.744 167.597,262.660 167.600 C 261.576 167.603,261.180 167.680,261.779 167.770 M190.246 168.174 C 191.601 168.251,193.818 168.251,195.172 168.174 C 196.527 168.097,195.419 168.034,192.709 168.034 C 190.000 168.034,188.892 168.097,190.246 168.174 M321.755 171.133 L 320.197 172.808 321.872 171.250 C 323.430 169.801,323.728 169.458,323.430 169.458 C 323.365 169.458,322.612 170.212,321.755 171.133 M84.039 171.716 C 84.852 171.801,86.182 171.801,86.995 171.716 C 87.808 171.631,87.143 171.561,85.517 171.561 C 83.892 171.561,83.227 171.631,84.039 171.716 M340.671 173.103 L 339.113 174.778 340.788 173.221 C 342.346 171.772,342.644 171.429,342.346 171.429 C 342.282 171.429,341.528 172.182,340.671 173.103 M78.522 172.094 C 78.901 172.193,79.522 172.193,79.901 172.094 C 80.281 171.995,79.970 171.914,79.212 171.914 C 78.453 171.914,78.143 171.995,78.522 172.094 M177.833 173.990 C 177.838 174.857,177.918 175.165,178.013 174.675 C 178.107 174.185,178.103 173.476,178.005 173.099 C 177.906 172.722,177.829 173.123,177.833 173.990 M283.367 185.795 C 271.154 198.013,270.717 198.574,273.760 198.118 C 274.640 197.986,274.544 197.938,273.303 197.892 L 271.729 197.833 283.744 185.813 C 290.352 179.202,295.670 173.793,295.562 173.793 C 295.453 173.793,289.966 179.194,283.367 185.795 M169.197 180.493 C 169.197 182.118,169.266 182.783,169.351 181.970 C 169.436 181.158,169.436 179.828,169.351 179.015 C 169.266 178.202,169.197 178.867,169.197 180.493 M377.537 177.857 C 377.537 177.925,378.113 178.501,378.818 179.138 L 380.099 180.296 378.941 179.015 C 377.862 177.821,377.537 177.553,377.537 177.857 M352.217 178.748 C 350.743 179.547,350.833 179.880,352.315 179.113 C 352.966 178.777,353.498 178.418,353.498 178.315 C 353.498 178.061,353.455 178.076,352.217 178.748 M216.273 179.183 C 216.686 179.348,216.687 179.510,216.279 180.038 C 215.931 180.490,216.046 180.460,216.657 179.939 C 217.753 179.004,217.752 178.909,216.650 178.947 C 216.163 178.964,215.993 179.070,216.273 179.183 M199.315 181.560 C 199.805 181.654,200.515 181.650,200.891 181.552 C 201.268 181.453,200.867 181.376,200.000 181.380 C 199.133 181.385,198.825 181.465,199.315 181.560 M49.834 183.350 L 48.276 185.025 49.951 183.467 C 51.508 182.018,51.807 181.675,51.509 181.675 C 51.444 181.675,50.690 182.429,49.834 183.350 M192.224 181.960 C 192.932 182.048,193.996 182.046,194.588 181.956 C 195.181 181.867,194.601 181.795,193.300 181.797 C 192.000 181.799,191.515 181.873,192.224 181.960 M337.833 184.311 C 338.212 184.410,338.833 184.410,339.212 184.311 C 339.591 184.212,339.281 184.131,338.522 184.131 C 337.764 184.131,337.453 184.212,337.833 184.311 M313.039 189.557 C 313.039 191.182,313.108 191.847,313.193 191.034 C 313.279 190.222,313.279 188.892,313.193 188.079 C 313.108 187.266,313.039 187.931,313.039 189.557 M74.088 193.793 C 74.088 193.956,75.019 194.037,76.157 193.975 C 79.626 193.784,79.955 193.608,76.946 193.551 C 75.374 193.522,74.089 193.631,74.088 193.793 M244.908 197.143 L 243.350 198.818 245.025 197.260 C 246.582 195.811,246.881 195.468,246.582 195.468 C 246.518 195.468,245.764 196.222,244.908 197.143 M220.690 199.212 C 219.075 200.837,217.842 202.167,217.951 202.167 C 218.059 202.167,219.469 200.837,221.084 199.212 C 222.699 197.586,223.931 196.256,223.823 196.256 C 223.714 196.256,222.304 197.586,220.690 199.212 M50.345 197.717 C 50.833 197.810,51.631 197.810,52.118 197.717 C 52.606 197.623,52.207 197.546,51.232 197.546 C 50.256 197.546,49.857 197.623,50.345 197.717 M345.222 198.227 C 344.463 198.642,343.984 198.989,344.158 198.998 C 344.575 199.020,346.798 197.864,346.798 197.625 C 346.798 197.367,346.775 197.376,345.222 198.227 M276.355 198.498 C 276.734 198.597,277.355 198.597,277.734 198.498 C 278.113 198.399,277.803 198.318,277.044 198.318 C 276.286 198.318,275.975 198.399,276.355 198.498 M309.064 199.681 C 309.443 199.780,310.064 199.780,310.443 199.681 C 310.823 199.581,310.512 199.500,309.754 199.500 C 308.995 199.500,308.685 199.581,309.064 199.681 M100.099 201.576 C 100.834 202.335,101.524 202.956,101.632 202.956 C 101.741 202.956,101.228 202.335,100.493 201.576 C 99.757 200.818,99.067 200.197,98.959 200.197 C 98.850 200.197,99.363 200.818,100.099 201.576 M296.256 200.876 C 296.961 200.964,298.113 200.964,298.818 200.876 C 299.522 200.789,298.946 200.717,297.537 200.717 C 296.128 200.717,295.552 200.789,296.256 200.876 M300.990 200.870 C 301.480 200.964,302.189 200.961,302.566 200.862 C 302.943 200.763,302.542 200.686,301.675 200.691 C 300.808 200.695,300.500 200.776,300.990 200.870 M185.788 205.813 L 184.631 207.094 185.911 205.936 C 187.105 204.857,187.373 204.532,187.069 204.532 C 187.001 204.532,186.425 205.108,185.788 205.813 M212.599 206.995 L 210.246 209.458 212.709 207.106 C 214.064 205.812,215.172 204.704,215.172 204.643 C 215.172 204.352,214.783 204.707,212.599 206.995 M126.988 206.502 C 126.988 207.261,127.069 207.571,127.168 207.192 C 127.267 206.813,127.267 206.192,127.168 205.813 C 127.069 205.433,126.988 205.744,126.988 206.502 M182.048 209.163 L 180.690 210.640 182.167 209.282 C 183.543 208.018,183.827 207.685,183.526 207.685 C 183.460 207.685,182.795 208.350,182.048 209.163 M205.505 213.695 L 203.153 216.158 205.616 213.805 C 206.970 212.512,208.079 211.403,208.079 211.342 C 208.079 211.051,207.690 211.407,205.505 213.695 M105.321 213.005 C 105.325 213.872,105.406 214.180,105.500 213.690 C 105.595 213.200,105.591 212.490,105.492 212.114 C 105.394 211.737,105.317 212.138,105.321 213.005 M177.128 213.695 L 175.172 215.764 177.241 213.808 C 178.379 212.732,179.310 211.801,179.310 211.739 C 179.310 211.445,178.945 211.772,177.128 213.695 M255.486 213.889 C 257.176 213.963,259.836 213.963,261.397 213.888 C 262.959 213.814,261.576 213.753,258.325 213.754 C 255.074 213.754,253.796 213.815,255.486 213.889 M156.630 216.000 C 156.070 217.105,155.678 218.075,155.759 218.156 C 155.840 218.237,156.382 217.333,156.963 216.147 C 157.545 214.961,157.937 213.990,157.835 213.990 C 157.733 213.990,157.190 214.894,156.630 216.000 M269.655 214.277 C 270.468 214.362,271.798 214.362,272.611 214.277 C 273.424 214.192,272.759 214.123,271.133 214.123 C 269.507 214.123,268.842 214.192,269.655 214.277 M285.616 214.268 C 286.103 214.362,286.901 214.362,287.389 214.268 C 287.877 214.174,287.478 214.097,286.502 214.097 C 285.527 214.097,285.128 214.174,285.616 214.268 M277.931 214.671 C 278.744 214.756,280.074 214.756,280.887 214.671 C 281.700 214.586,281.034 214.517,279.409 214.517 C 277.783 214.517,277.118 214.586,277.931 214.671 M199.092 219.625 C 197.600 221.165,197.532 221.493,198.719 221.432 C 199.449 221.395,199.476 221.353,198.875 221.198 C 198.229 221.032,198.295 220.853,199.445 219.668 C 200.160 218.929,200.657 218.325,200.549 218.325 C 200.440 218.325,199.785 218.910,199.092 219.625 M211.743 220.195 C 213.651 220.268,216.665 220.267,218.443 220.194 C 220.221 220.122,218.660 220.062,214.975 220.063 C 211.291 220.063,209.836 220.123,211.743 220.195 M204.438 220.574 C 204.928 220.669,205.638 220.665,206.014 220.566 C 206.391 220.468,205.990 220.391,205.123 220.395 C 204.256 220.399,203.948 220.480,204.438 220.574 M224.138 220.574 C 224.626 220.668,225.424 220.668,225.911 220.574 C 226.399 220.480,226.000 220.403,225.025 220.403 C 224.049 220.403,223.650 220.480,224.138 220.574 M168.842 221.970 L 167.685 223.251 168.966 222.094 C 170.159 221.015,170.427 220.690,170.123 220.690 C 170.055 220.690,169.479 221.266,168.842 221.970 M43.921 225.064 C 43.361 226.169,42.969 227.140,43.050 227.220 C 43.130 227.301,43.672 226.397,44.254 225.211 C 44.836 224.025,45.228 223.054,45.126 223.054 C 45.023 223.054,44.481 223.959,43.921 225.064 M134.870 225.813 C 134.870 226.571,134.951 226.882,135.050 226.502 C 135.149 226.123,135.149 225.502,135.050 225.123 C 134.951 224.744,134.870 225.054,134.870 225.813 M260.197 225.307 C 260.793 225.397,261.768 225.397,262.365 225.307 C 262.961 225.217,262.473 225.143,261.281 225.143 C 260.089 225.143,259.601 225.217,260.197 225.307 M265.916 225.303 C 266.406 225.398,267.115 225.394,267.492 225.295 C 267.869 225.197,267.468 225.120,266.601 225.124 C 265.734 225.128,265.426 225.209,265.916 225.303 M96.738 231.429 L 93.990 234.286 96.847 231.538 C 99.501 228.985,99.884 228.571,99.595 228.571 C 99.535 228.571,98.250 229.857,96.738 231.429 M163.265 234.286 C 163.268 235.369,163.345 235.766,163.435 235.167 C 163.526 234.568,163.524 233.681,163.430 233.197 C 163.337 232.712,163.262 233.202,163.265 234.286 M203.448 236.346 C 204.261 236.431,205.591 236.431,206.404 236.346 C 207.217 236.261,206.552 236.192,204.926 236.192 C 203.300 236.192,202.635 236.261,203.448 236.346 M231.411 236.351 C 232.865 236.427,235.348 236.427,236.929 236.352 C 238.509 236.277,237.320 236.215,234.286 236.215 C 231.251 236.214,229.958 236.275,231.411 236.351 M259.409 236.331 C 259.788 236.430,260.409 236.430,260.788 236.331 C 261.167 236.232,260.857 236.151,260.099 236.151 C 259.340 236.151,259.030 236.232,259.409 236.331 M197.143 236.735 C 197.739 236.826,198.714 236.826,199.310 236.735 C 199.906 236.645,199.419 236.571,198.227 236.571 C 197.034 236.571,196.547 236.645,197.143 236.735 M247.783 236.746 C 249.571 236.819,252.498 236.819,254.286 236.746 C 256.074 236.673,254.611 236.614,251.034 236.614 C 247.458 236.614,245.995 236.673,247.783 236.746 M192.808 237.119 C 193.187 237.218,193.808 237.218,194.187 237.119 C 194.567 237.020,194.256 236.939,193.498 236.939 C 192.739 236.939,192.429 237.020,192.808 237.119 M144.138 239.490 C 144.626 239.584,145.424 239.584,145.911 239.490 C 146.399 239.396,146.000 239.319,145.025 239.319 C 144.049 239.319,143.650 239.396,144.138 239.490 M97.340 246.700 C 96.581 247.115,96.102 247.462,96.276 247.471 C 96.693 247.493,98.916 246.337,98.916 246.098 C 98.916 245.840,98.893 245.849,97.340 246.700 M189.270 249.852 C 189.270 250.828,189.347 251.227,189.441 250.739 C 189.535 250.251,189.535 249.453,189.441 248.966 C 189.347 248.478,189.270 248.877,189.270 249.852 M136.527 251.133 L 135.369 252.414 136.650 251.256 C 137.844 250.177,138.112 249.852,137.808 249.852 C 137.740 249.852,137.164 250.429,136.527 251.133 M144.363 253.399 C 144.363 254.808,144.434 255.384,144.522 254.680 C 144.609 253.975,144.609 252.823,144.522 252.118 C 144.434 251.414,144.363 251.990,144.363 253.399 M71.236 254.466 C 71.726 254.560,72.436 254.557,72.812 254.458 C 73.189 254.359,72.788 254.282,71.921 254.287 C 71.054 254.291,70.746 254.372,71.236 254.466 M281.288 267.872 C 281.996 267.960,283.060 267.958,283.652 267.868 C 284.245 267.778,283.665 267.706,282.365 267.708 C 281.064 267.711,280.580 267.784,281.288 267.872 M261.774 270.936 C 261.779 271.803,261.859 272.111,261.954 271.621 C 262.048 271.131,262.044 270.421,261.946 270.045 C 261.847 269.668,261.770 270.069,261.774 270.936 M217.242 282.365 C 217.247 283.232,217.327 283.540,217.422 283.050 C 217.516 282.559,217.512 281.850,217.414 281.473 C 217.315 281.096,217.238 281.498,217.242 282.365 M237.808 285.419 L 236.650 286.700 237.931 285.542 C 238.635 284.905,239.212 284.329,239.212 284.261 C 239.212 283.957,238.887 284.225,237.808 285.419 M217.250 287.685 C 217.250 288.660,217.327 289.059,217.421 288.571 C 217.515 288.084,217.515 287.286,217.421 286.798 C 217.327 286.310,217.250 286.709,217.250 287.685 M259.024 293.990 C 259.024 294.966,259.100 295.365,259.194 294.877 C 259.288 294.389,259.288 293.591,259.194 293.103 C 259.100 292.616,259.024 293.015,259.024 293.990 M240.159 297.204 C 239.991 297.477,240.051 297.552,240.310 297.392 C 240.590 297.219,240.795 297.716,240.893 298.809 L 241.045 300.493 241.113 298.621 C 241.179 296.836,240.766 296.223,240.159 297.204 M275.559 300.296 C 275.559 301.054,275.641 301.365,275.740 300.985 C 275.839 300.606,275.839 299.985,275.740 299.606 C 275.641 299.227,275.559 299.537,275.559 300.296 M258.685 306.404 C 258.685 310.305,258.744 311.848,258.816 309.832 C 258.888 307.816,258.887 304.624,258.815 302.739 C 258.743 300.853,258.685 302.502,258.685 306.404 M275.238 311.527 C 275.239 315.645,275.297 317.277,275.368 315.152 C 275.439 313.027,275.439 309.658,275.367 307.664 C 275.296 305.671,275.238 307.409,275.238 311.527 M194.032 309.163 C 194.030 311.113,194.097 311.961,194.180 311.046 C 194.262 310.132,194.263 308.536,194.182 307.500 C 194.100 306.463,194.033 307.212,194.032 309.163 M229.154 310.246 L 225.616 313.892 229.261 310.353 C 231.266 308.407,232.906 306.766,232.906 306.708 C 232.906 306.422,232.441 306.861,229.154 310.246 M17.475 309.951 C 17.476 311.685,17.546 312.345,17.629 311.418 C 17.712 310.491,17.711 309.073,17.626 308.265 C 17.542 307.458,17.474 308.217,17.475 309.951 M82.472 312.512 C 82.472 313.488,82.549 313.887,82.643 313.399 C 82.737 312.911,82.737 312.113,82.643 311.626 C 82.549 311.138,82.472 311.537,82.472 312.512 M247.685 314.089 C 248.972 315.389,250.113 316.453,250.222 316.453 C 250.330 316.453,249.366 315.389,248.079 314.089 C 246.792 312.788,245.650 311.724,245.542 311.724 C 245.434 311.724,246.398 312.788,247.685 314.089 M219.113 318.030 C 218.355 318.445,217.876 318.792,218.049 318.801 C 218.467 318.823,220.690 317.667,220.690 317.428 C 220.690 317.170,220.667 317.179,219.113 318.030 M255.862 319.483 C 256.241 319.583,256.862 319.583,257.241 319.483 C 257.621 319.384,257.310 319.303,256.552 319.303 C 255.793 319.303,255.483 319.384,255.862 319.483 M205.424 322.253 C 206.023 322.344,206.910 322.341,207.395 322.248 C 207.879 322.154,207.389 322.080,206.305 322.083 C 205.222 322.086,204.825 322.163,205.424 322.253 M152.251 330.640 C 152.251 332.266,152.320 332.931,152.405 332.118 C 152.490 331.305,152.490 329.975,152.405 329.163 C 152.320 328.350,152.251 329.015,152.251 330.640 M166.882 338.621 L 164.926 340.690 166.995 338.734 C 168.133 337.658,169.064 336.727,169.064 336.665 C 169.064 336.371,168.699 336.698,166.882 338.621 M159.118 342.348 C 159.608 342.442,160.317 342.438,160.694 342.340 C 161.071 342.241,160.670 342.164,159.803 342.168 C 158.936 342.173,158.628 342.253,159.118 342.348 M93.498 356.847 C 93.503 357.714,93.583 358.023,93.678 357.532 C 93.772 357.042,93.768 356.333,93.670 355.956 C 93.571 355.579,93.494 355.980,93.498 356.847 M110.718 363.645 L 109.360 365.123 110.837 363.765 C 112.213 362.501,112.496 362.167,112.196 362.167 C 112.130 362.167,111.465 362.833,110.718 363.645 " stroke="none" fill="#059c65" fill-rule="evenodd"></path></g></svg>